<?xml version="1.0" encoding="UTF-8" standalone="no"?>
<!-- Created with Inkscape (http://www.inkscape.org/) -->

<svg
   xmlns:dc="http://purl.org/dc/elements/1.1/"
   xmlns:cc="http://creativecommons.org/ns#"
   xmlns:rdf="http://www.w3.org/1999/02/22-rdf-syntax-ns#"
   xmlns:svg="http://www.w3.org/2000/svg"
   xmlns="http://www.w3.org/2000/svg"
   xmlns:sodipodi="http://sodipodi.sourceforge.net/DTD/sodipodi-0.dtd"
   xmlns:inkscape="http://www.inkscape.org/namespaces/inkscape"
   width="270"
   height="329.672"
   viewBox="0 0 269.99999 329.67201"
   id="svg3460"
   version="1.1"
   inkscape:version="0.91 r13725"
   sodipodi:docname="sgllogo_light.svg">
  <defs
     id="defs3462" />
  <sodipodi:namedview
     id="base"
     pagecolor="#ffffff"
     bordercolor="#666666"
     borderopacity="1.0"
     inkscape:pageopacity="0.0"
     inkscape:pageshadow="2"
     inkscape:zoom="1.4"
     inkscape:cx="375"
     inkscape:cy="148.57143"
     inkscape:document-units="px"
     inkscape:current-layer="layer1"
     showgrid="false"
     inkscape:window-width="1366"
     inkscape:window-height="705"
     inkscape:window-x="-8"
     inkscape:window-y="-8"
     inkscape:window-maximized="1"
     units="px" />
  <metadata
     id="metadata3465">
    <rdf:RDF>
      <cc:Work
         rdf:about="">
        <dc:format>image/svg+xml</dc:format>
        <dc:type
           rdf:resource="http://purl.org/dc/dcmitype/StillImage" />
        <dc:title></dc:title>
      </cc:Work>
    </rdf:RDF>
  </metadata>
  <g
     inkscape:label="Layer 1"
     inkscape:groupmode="layer"
     id="layer1"
     transform="translate(0,-722.69011)">
    <g
       transform="matrix(1.5621809,0,0,1.5621809,1890.5269,1330.7987)"
       id="g6987"
       inkscape:export-xdpi="151.58"
       inkscape:export-ydpi="151.58"
       style="fill:#800080">
      <path
         d="m -1208.0791,-386.80934 0,1.7704 0,0.48283 0,0.86911 0,6.14813 0,3.63738 0,0.12874 0,0.61161 0,1.89916 0,1.86696 0,0.38628 0,1.7382 0,2.38201 0,0.64378 0,2.51075 0,0.6116 0,1.64164 0,0.74037 0,1.25538 0,2.76827 0,0.74033 0,1.12663 0,0.12875 0,1.25538 0,5.11809 0,1.12661 0,0.90128 0,0.12876 0,0 0.032,-0.12876 0.064,0.12876 0.032,0 0.2232,-0.12876 0,0.12876 0.064,-0.12876 0.032,0 0.032,0.12876 0,-0.12876 0.064,0.12876 0,-0.12876 0,-1.89915 0,-0.12874 0,-0.0966 0,-0.12879 0,-7.14598 q 0,-3.2511 0.032,-3.2511 l 0,13.51944 -0.606,0 0,-44.48541 0.606,0 0,8.65889 q -0.032,-0.74035 -0.032,-3.37987 l 0,-4.02365 0,-0.38627 0,0.12877 -0.096,-0.25751 -0.2233,0 -0.032,0.12874 -0.032,-0.12874 -0.1595,0 0,0.38625 z m 44.3052,-0.80473 0.3189,0.32188 0,2.25325 q 0,1.67383 -0.9569,1.93136 l -0.9569,-3.54082 0,-0.64379 1.5949,-0.32188 z m -0.319,7.0816 q 1.0526,0.32191 1.2759,1.28757 -0.4147,1.60946 -0.9569,1.60946 -0.7337,0 -0.957,-1.60946 l 0.638,-1.28757 z m -28.8989,-6.21249 0.2871,0 q 13.5882,0.45064 15.3426,6.01935 l 0.7974,6.43785 q -0.9888,0.64378 -1.9138,0.64378 l -9.314,0 -1.0845,-0.86912 0,-2.76826 q 0,-2.57512 -2.2009,-2.57512 -2.7432,0 -2.7432,2.57512 l 0,1.70602 q 0,2.89702 3.5725,4.5065 0.4466,0.51502 4.657,2.3498 8.2614,3.92707 9.0269,7.08162 0.8293,1.12662 0.8293,5.15026 l 0,3.63738 q 0,5.05369 -4.657,6.85629 -3.0302,2.15667 -11.2278,2.15667 -9.2183,0 -13.1416,-5.60092 -1.3716,-3.12233 -1.6587,-9.20609 0.9888,-0.64379 1.9139,-0.64379 l 9.3139,0 q 1.6587,0 1.6587,1.70602 l -0.2871,0 0.2871,0.22532 -0.2871,3.63739 q 0,3.21891 2.7432,3.21891 2.4561,0 2.7431,-2.57514 l 0,-1.70601 q 0,-4.73181 -1.9138,-4.73181 l -12.8865,-7.04943 q -3.2854,-3.34767 -3.2854,-8.5945 l 0,-2.12449 q 0,-6.34128 7.6873,-8.5945 l 5.7414,-0.8691 z m 26.3471,30.03248 0.319,0 0.319,1.60946 0,0.96567 -0.638,0 0,-2.57513 z m -6.3794,6.11594 2.5518,0 0.3189,0.3219 0.319,0 q -0.6699,1.93133 -2.5518,1.93133 l -0.319,0 -0.9569,-0.96566 0,-0.64378 0.638,-0.64379 z m 6.3794,0.96567 0,0.64379 q 0,0.54721 -1.5949,0.96566 l -0.3189,-0.32189 q 0.3189,-1.28756 1.9138,-1.28756 z m -1.2759,8.65888 0.638,0.64379 0,0.32188 -0.638,0 0,-0.96567 z m -22.0728,-23.72341 0.2552,0 0,0.51503 -0.2552,-0.2575 0,-0.25753 z m -15.4383,7.08162 0.2552,0 0.2552,0.2575 0,0.25752 -0.2552,0 -0.2552,-0.25752 0,-0.2575 z m -1.0207,0.9013 0.1276,0 0,0.38625 -0.2552,0.25754 -0.1275,0 0,-0.38628 0.2551,-0.25751 z m 9.5692,3.99145 0.2552,0 0.5103,0.51502 0,0.64378 -0.2552,0.25752 -0.6379,-1.03005 0.1276,-0.38627 z m 3.3173,7.08163 q 1.1483,0.16094 1.1483,0.51501 l -0.7655,0.25752 -0.7656,-0.25752 0,-0.12875 0.3828,-0.38626 z"
         style="font-style:normal;font-variant:normal;font-weight:normal;font-stretch:normal;font-size:medium;line-height:125%;font-family:Kuusinollakahdeksan;-inkscape-font-specification:Kuusinollakahdeksan;letter-spacing:0px;word-spacing:0px;fill:#800080;fill-opacity:1;stroke:none;stroke-width:1px;stroke-linecap:butt;stroke-linejoin:miter;stroke-opacity:1"
         id="path4403-7-0"
         inkscape:connector-curvature="0" />
      <path
         d="m -1169.4994,-388.29005 2.2328,0.22533 6.826,0 2.0095,-0.22533 q 0.8931,0.22533 0.8931,1.22319 l 0,17.06025 q 0,8.75546 2.2328,9.49581 l 6.3795,0.2897 q 3.1578,-3.09016 3.1578,-8.49794 l 0,-14.83921 -0.2233,-0.22531 0.2233,-0.19314 0,-0.19313 -0.2233,-0.19315 0.2233,-0.22531 0,-0.19313 -0.2233,-2.02792 q 0.2552,-1.60946 0.8931,-1.60946 l 8.8993,0 1.3397,-0.19314 q 1.3397,0.41846 1.3397,0.80474 l 0,25.65475 -0.2233,0.19313 0,0.19315 0.2233,0 q -0.4466,3.31546 -2.2328,6.27688 -3.5406,3.99144 -6.9217,5.05368 -1.85,0.99787 -9.4097,1.8026 -9.1545,-0.9013 -9.1545,-1.8026 -3.0302,0 -7.3682,-5.27903 -2.0095,-2.92919 -2.0095,-9.07733 l 0,-21.85643 q 0,-0.96567 1.1164,-1.64165 z"
         style="font-style:normal;font-variant:normal;font-weight:normal;font-stretch:normal;font-size:medium;line-height:125%;font-family:Kuusinollakahdeksan;-inkscape-font-specification:Kuusinollakahdeksan;letter-spacing:0px;word-spacing:0px;fill:#800080;fill-opacity:1;stroke:none;stroke-width:1px;stroke-linecap:butt;stroke-linejoin:miter;stroke-opacity:1"
         id="path4405-7-1"
         inkscape:connector-curvature="0" />
      <path
         d="m -1127.3472,-330.57488 0.3509,0.0644 0.3508,-0.0644 4.2742,0.0644 2.1053,0 0.3508,-0.0644 0.3509,0 0,0.0644 0.3509,-0.0644 0.3827,0 6.3476,0.0644 4.2742,-0.0644 3.1897,0.0644 9.8881,-0.0644 0.7337,0 0.3508,0.0644 0.3509,-0.0644 14.1623,0 0,0.8691 -0.3508,0 -22.6789,0.0322 0,-0.0322 -0.3509,0.0322 -1.7543,-0.0322 -0.7336,0 -1.4035,0.0322 -1.4035,-0.0322 -1.4354,0 -1.4035,0.0322 -1.0845,-0.0322 -0.3508,0.0322 0,-0.0322 -0.3509,0.0322 -1.0526,0 0,-0.0322 -2.488,0.0322 -12.727,0 0,-0.90128 1.7544,0 z m 20.765,-58.26238 q 10.4623,0.77254 13.1736,3.12235 6.6027,5.15027 6.6027,7.4357 l -2.7112,2.73608 q -2.2648,3.50861 -5.0398,3.50861 l -6.9855,-4.31335 q -1.7543,-0.77255 -5.0398,-0.77255 l -1.1802,0 q -2.1371,0 -5.8052,3.92709 -2.3285,3.573 -2.3285,8.20823 l 0,4.6996 q 2.169,9.75332 9.3139,9.75332 l 1.563,0 q 4.4337,0 7.6234,-5.8584 1.9139,-1.57728 11.3554,0.77253 l -0.3827,0.41846 2.2966,1.35194 -1.9139,3.70175 q 0,2.86484 -5.4225,6.66316 -2.169,2.47856 -7.3682,3.89489 l -6.1881,1.19099 0,-0.41845 -0.4146,0.41845 -1.1484,0 -0.3827,-0.41845 -0.3828,0 0,0.41845 q -8.9631,-1.44851 -12.408,-4.31334 -5.3268,-3.8627 -6.6027,-7.82198 -3.094,-5.8584 -3.094,-12.90782 l 0,-2.34984 0.4146,-0.38625 -0.4146,-0.38628 q 0.4146,-3.89489 2.7112,-9.39924 0.925,0 1.1802,-2.73607 2.1371,-3.57299 7.751,-7.4035 2.9665,-1.96354 11.2278,-2.73608 z m 27.9101,35.56902 0,6.27688 q -2.7113,-0.67598 -2.7113,-3.54082 l 0,-1.93132 2.7113,-0.80474 z"
         style="font-style:normal;font-variant:normal;font-weight:normal;font-stretch:normal;font-size:medium;line-height:125%;font-family:Kuusinollakahdeksan;-inkscape-font-specification:Kuusinollakahdeksan;letter-spacing:0px;word-spacing:0px;fill:#800080;fill-opacity:1;stroke:none;stroke-width:1px;stroke-linecap:butt;stroke-linejoin:miter;stroke-opacity:1"
         id="path4407-1-1"
         inkscape:connector-curvature="0" />
      <path
         d="m -1037.7001,-387.03466 0,0 0.032,-0.3219 0.319,0 -0.2871,4.47429 q -0.032,0 -0.096,1.03004 l -0.064,1.38416 -0.064,0.51501 0,0 0,0.16096 -0.032,0.35408 q -0.064,1.03005 -0.032,1.03005 l -1.7863,27.84361 -0.032,0 0,0.16094 0,0 0,0.19315 -0.032,0.32189 0,0 -0.064,0.8691 -0.032,0.86911 -0.032,0.16094 0,0.16095 0,0.19313 -0.032,0 0,0.16096 0,0.16095 -0.032,0.51501 -0.032,0.19315 0,0.16094 0,0.35407 0,-0.19312 0,0.19312 -0.6698,10.26836 -0.096,0 0,0.19312 0.096,0 -0.032,0.16095 -0.1595,0 0,0.16095 0.032,0 0,0.19313 -0.032,0 0,0.16096 0.064,0 -0.032,0.16093 -0.032,0 -0.032,0.19313 0.064,0 0,0.16094 -0.064,0 0,0.16095 0.032,0 0,0.19315 -0.064,0 0,0.16094 0,0 0,0.16094 -0.032,0 0,0.19314 0.032,0 -0.032,0.16094 -0.032,0.35408 0,0 0.032,-0.35408 0,0 -0.032,0.51504 0,-0.16096 0,0.16096 0,0.16093 -0.032,0 -0.1276,2.06012 0,0 q 0.064,-0.83695 0.064,-0.83695 l 0,-0.35406 0,0.16095 0,0 0.032,-0.32189 0,0 -0.032,0.16094 0.032,-0.16094 -0.032,0 0,0.32189 0,0 0,-0.32189 0,0 -0.096,1.70603 -0.032,0 0,0.16094 0,0 0,0.19313 -0.032,0 0,0.16096 0,0 0,0.16094 -0.032,0 0,-0.16094 0.032,0 0,-0.16096 0,0 0,-0.35407 0,0.16094 0.032,0 0,-0.16094 0,-0.16095 -0.032,0.16095 -0.032,0 0,-0.19315 0.032,0.0322 0,-0.19313 0,0 0.064,-0.67597 0,-0.35409 0,0 -0.032,0.51502 0,0 0.096,-1.19099 -0.032,0.16095 0,0 0,-0.16095 0.032,-0.19315 0,-0.16094 0,-0.16095 q 0.064,-1.03005 0.096,-1.03005 l 0,-0.19313 -0.032,0 0,-0.16094 0.064,0 0,-0.16095 -0.064,0 0,-0.19314 0.064,0 0.032,-0.16095 -0.096,0 0.032,-0.16093 0.064,0 0.032,-0.19313 -0.2552,0 0,-0.16095 0.2233,0 0.032,-0.16095 -0.2233,-0.0322 3.3173,-51.88892 0.1276,0.0322 0,0.3219 z m -39.4568,-1.73824 -2.7432,42.84378 0.638,0.64379 6.3475,0.41846 0.2552,-0.5794 -0.1595,-0.83692 0.2552,-0.57941 -0.2233,-0.19313 0.2233,0 -0.1914,-0.22533 0.032,-0.5794 0.2871,-0.99787 -0.2233,-0.19312 0.2233,0 -0.1914,-0.22533 0.7974,-12.68254 0.2552,-0.16096 0,-0.22531 -0.2233,0 0.2233,-0.19313 0.032,-0.19312 -0.2232,-0.22534 0.032,-0.19314 q 0.3508,-0.96568 0.7336,-0.93347 l -0.032,0.19312 0.2551,-0.19312 1.1164,0.28968 1.1164,0.0644 0.2552,-0.19314 0.2233,0.22532 0.6698,0.0324 0.2233,-0.19314 0.2233,0.0324 0.2233,0.19314 0.032,-0.19314 0.1914,0.22534 4.0828,0.25748 0.1595,1.03007 -0.3828,5.89062 0.2233,0.22532 -0.2551,0.19313 -0.7018,11.13745 0.638,0.64379 5.869,0.38626 q 0.5104,0.0322 0.7337,-0.93348 l -0.1914,-0.22531 0.2233,-0.19317 -0.1914,-0.19312 0.2233,0 -0.2233,-0.22533 0.2871,-0.96567 -0.032,-2.9936 0.2871,-0.99786 -0.2233,-0.2253 0.2552,-0.16097 -0.2233,-0.22531 0.2233,0.0322 -0.1914,-0.22532 0.032,-0.80474 0.2552,-0.19315 -0.2233,-0.19312 0,-0.19312 0.2552,-0.19314 0,-0.19314 -0.1914,-0.22531 0.2233,0 -0.2233,-0.19315 0.064,-0.99787 0.2233,-0.19312 0.032,-0.19313 -0.2233,-0.22534 0.2233,0.0324 -0.1914,-0.22532 0,-0.19313 0.3828,-2.57515 0.2233,-6.79189 0.4146,-3.18675 -0.1913,-0.61159 0.4784,-3.76613 0.1914,-2.99358 0.2233,-6.98504 0.3189,-1.57728 -0.1276,-1.60947 0.2552,-0.19312 -0.2233,-0.19314 0.2552,-0.19315 -0.2233,0 0.2233,-0.19311 0.032,-0.19315 -0.2232,-0.22531 0,-0.19314 0.2232,0 q -0.1594,-0.80473 -1.3077,-0.8691 l -4.4976,-0.28973 -0.2551,0.16096 -0.2233,0 0.032,-0.19315 q -0.925,0.12877 -0.9888,1.12663 l -1.0845,16.64182 -0.2871,0.96564 -8.1337,-0.515 -0.2233,0.19311 -0.2552,-0.0322 -0.5742,-1.22318 0.2233,0 -0.2233,-0.22533 0.6061,-9.2383 0.2233,-0.19313 -0.2233,-0.22533 0.064,-0.99786 0.2551,-0.19313 -0.2233,-0.19313 0.1914,-2.9936 0.2552,-0.19311 0,-0.19317 -0.2233,-0.22531 0.2552,0.0322 -0.2233,-0.22532 0,-0.19316 0.2871,-0.57938 -0.2233,-0.22531 0.2233,-0.16097 -0.2233,-0.0324 0.2552,-0.19313 0,-0.19314 -0.2233,-0.22532 0.032,-0.19312 0.2233,0.0324 q -0.2871,-0.83692 -0.6379,-0.83692 l -4.7527,-0.32189 q -1.6587,-0.0967 -1.85,0.48283 z m -2.6475,47.31807 0,0.28971 1.4035,0.0965 0,-0.28972 -1.4035,-0.0965 z m 1.6587,0.0965 -0.032,0.28971 1.6268,0.0966 0.032,-0.2897 -1.6267,-0.0966 z m 2.2966,0.16095 0,0.2897 5.1035,0.32189 0.032,-0.2897 -5.1354,-0.32189 z m 17.7029,1.15882 -0.032,0.28969 1.6267,0.0967 0.032,-0.28969 -1.6267,-0.0966 z m -8.6442,0 -0.032,0.28969 1.1802,0.0967 0,-0.28969 -1.1483,-0.0966 z m 3.4449,0.80472 -0.032,0.2897 0.9569,0.0644 0,-0.28971 -0.925,-0.0644 z m 5.8372,0.0966 7.6873,0.51504 -0.032,0.2897 -7.6872,-0.51503 0.032,-0.28971 z m -16.3313,-0.48282 0,0.28969 -8.1338,-0.5472 0,-0.2897 8.1338,0.54721 z m 1.1802,0.0644 1.6267,0.12876 -0.032,0.28969 -1.6267,-0.12876 0.032,-0.28969 z m 16.9693,1.12662 2.1052,0.12874 -0.032,0.28971 -2.0733,-0.12875 0,-0.2897 z m 3.0302,0.19313 2.7751,0.19314 0,0.28969 -2.807,-0.19314 0.032,-0.28969 z m -17.9581,-0.6116 0,0.2897 -11.3873,-0.74035 0,-0.28969 11.3873,0.74034 z m 15.3744,1.03006 5.3269,0.32189 0,0.2897 -5.3588,-0.32191 0.032,-0.28968 z m -23.0935,-0.93349 0,0.28971 -3.732,-0.25752 0.032,-0.28969 3.7001,0.2575 z m 0.2551,0 1.8501,0.12876 -0.032,0.2897 -1.8501,-0.12875 0.032,-0.28971 z m 22.0729,1.44851 1.4035,0.0967 0,0.2897 -1.4035,-0.0965 0,-0.28972 z m 1.8819,0.12876 3.0303,0.19314 -0.032,0.28969 -3.0302,-0.19314 0.032,-0.28969 z m -12.1847,0.35409 -0.2552,0.2897 0,0.2897 0.7018,-0.25752 0.032,-0.28969 -0.4785,-0.0322 z m 0.7336,3.25108 -0.032,0.57942 0.2233,0.28969 -0.032,0.28972 -0.2552,0.2575 -0.2233,0 -0.2233,-0.28968 0.032,-0.57942 0.2552,-0.28968 0.032,-0.28973 -0.2232,-0.2897 -0.2233,-0.0324 -0.096,1.1588 0.4147,0.9013 q 0.7017,0.0323 0.8293,-1.67384 l 0.4466,0.0322 0.032,-0.57941 -0.9569,0.51504 z m 5.8691,-0.48282 0.2233,0 -0.064,1.15881 -0.2233,-0.0324 0.064,-1.12662 z m -2.6155,0.67597 -0.064,1.15882 0.2233,0.0322 0.064,-1.15883 -0.2233,-0.0322 z m 1.1802,0.0966 0.2232,0 -0.7655,0.83691 0.032,-0.2897 0.5104,-0.54721 z m -6.3157,0.16093 0.2233,0 -0.064,1.1588 -0.2552,0 0.096,-1.1588 z m 6.4113,1.57726 -0.032,0.5794 -0.7017,-0.0644 0.032,-0.28969 0.7017,-0.22534 z m -5.1673,0.51503 0.7017,0.0644 0.2233,0.28971 -0.032,0.57938 -0.4785,-0.0322 -0.4146,-0.6116 0,-0.2897 z m -0.9569,0.51502 1.1483,0.0966 0,0.2897 -1.1802,-0.0966 0.032,-0.28971 z"
         style="font-style:normal;font-variant:normal;font-weight:normal;font-stretch:normal;font-size:medium;line-height:125%;font-family:Kuusinollakahdeksan;-inkscape-font-specification:Kuusinollakahdeksan;letter-spacing:0px;word-spacing:0px;fill:#800080;fill-opacity:1;stroke:none;stroke-width:1px;stroke-linecap:butt;stroke-linejoin:miter;stroke-opacity:1"
         id="path4409-9-8"
         inkscape:connector-curvature="0" />
      <path
         d="m -1203.0069,-339.9684 0.2792,0.10573 0.2793,-0.10573 3.3167,0.10573 1.6757,0 0.2793,-0.10573 0.2793,0 0,0.10573 0.2793,-0.10573 0.2793,0 4.9924,0.10573 3.3167,-0.10573 2.5136,0.10573 7.7504,-0.10573 0.5586,0 0.2793,0.10573 0.2793,-0.10573 11.102,0 0,1.93772 -0.2793,0 -17.7701,0.10573 0,-0.10573 -0.2793,0.10573 -1.3616,-0.10573 -0.5586,0 -1.1172,0.10573 -1.1171,-0.10573 -1.1173,0 -1.0822,0.10573 -0.8379,-0.10573 -0.2793,0.10573 0,-0.10573 -0.2793,0.10573 -0.8379,0 0,-0.10573 -1.955,0.10573 -9.9499,0 0,-2.04344 1.3616,0 z m 17.805,14.76198 q 10.6132,0.77508 13.3713,3.17082 6.6681,5.21424 6.6681,7.53953 l -2.758,2.78328 q -2.2693,3.55837 -5.0972,3.55837 l -7.0871,-4.36868 q -1.7805,-0.7751 -5.0971,-0.7751 l -1.187,0 q -2.1994,0 -5.9001,3.94592 -2.374,3.66406 -2.374,8.34984 l 0,4.75624 q 2.1994,9.93527 9.4611,9.93527 l 1.571,0 q 4.5037,0 6.2842,-2.78329 0,-3.59361 -3.9451,-3.59361 l 0,0.42279 -0.384,-0.42279 -4.3291,0 q -0.8728,0 -1.571,-3.55837 0,-6.76445 2.374,-6.76445 l 0.384,0.42279 10.6132,-0.42279 1.187,0 4.3291,0.42279 1.1521,-0.42279 q 3.177,0 3.177,3.98115 l 0,7.53955 -0.419,0.38754 0.419,0.42278 0,4.75625 q 0,2.88899 -5.5161,6.72921 -2.1994,2.53665 -7.4711,3.98115 l -6.2842,1.16263 0,-0.38755 -0.4189,0.38755 -1.1521,0 -0.419,-0.38755 -0.384,0 0,0.38755 q -9.0771,-1.40924 -12.5682,-4.33346 -5.4114,-3.94593 -6.6682,-7.92708 -3.177,-5.98934 -3.177,-13.10611 l 0,-2.39573 0.4189,-0.38755 -0.4189,-0.38754 q 0.4189,-3.98113 2.758,-9.54769 0.9078,0 1.187,-2.74806 2.1646,-3.66409 7.8552,-7.53952 3.0374,-2.00821 11.4162,-2.78329 z m 28.3135,36.1122 0,6.34166 q -2.758,-0.70462 -2.758,-3.55837 l 0,-2.00818 2.758,-0.77511 z"
         style="font-style:normal;font-variant:normal;font-weight:normal;font-stretch:normal;font-size:medium;line-height:125%;font-family:Kuusinollakahdeksan;-inkscape-font-specification:Kuusinollakahdeksan;letter-spacing:0px;word-spacing:0px;fill:#800080;fill-opacity:1;stroke:none;stroke-width:1px;stroke-linecap:butt;stroke-linejoin:miter;stroke-opacity:1"
         id="path4411-3-0"
         inkscape:connector-curvature="0" />
      <path
         d="m -1158.0446,-328.69434 q 0,0.59894 -0.7331,0.70463 l 0,-1.47973 q 0.7331,0.10573 0.7331,0.7751 z m 4.1196,-0.66939 q 0.6633,0 1.0474,1.26833 l 0.9426,1.86723 0,0.49326 -0.2793,0.28185 -0.384,-0.10573 -0.6634,0.10573 q -0.8029,-0.56369 -1.1171,-0.56369 l -0.7332,0 q -0.4538,0.56369 -0.8728,0.56369 l -0.07,0 q -0.6983,0 -0.7681,-0.28185 l 0,-0.49326 q 0.4888,-0.42274 0.5586,-1.16262 0.2095,-0.0353 0.9426,-1.86724 l 0.1048,-0.10573 1.2917,0 z m 5.0622,0.88078 0.2095,0 q 0.4539,0.2466 0.4539,0.77509 0,0.38753 -0.4539,0.70462 -0.8728,0 -0.8728,-0.81032 0,-0.66939 0.6633,-0.66939 z m -5.9699,1.37402 0.07,0.10573 0.2793,0 0.2793,-0.31707 -0.2793,-0.28189 -0.07,0 q -0.2095,0 -0.2793,0.49327 z m -3.8403,0.17615 q 0.5586,0.10584 0.5586,0.31708 l 0,0.88079 q 0,0.21139 -0.6633,0.28185 l 0,-1.47972 0.105,0 z m 1.4663,1.86727 4.1545,0.28185 3.0723,-0.28185 q 10.5782,0.17616 10.5782,1.69112 1.606,0 3.6309,4.75623 l 0.8379,2.25483 0,10.95697 q -1.5361,4.79145 -2.793,4.79145 l -0.2793,1.37405 0,0.56368 q 3.0723,2.60713 3.0723,5.07334 l -0.2793,2.53667 0.2793,3.34697 -0.2793,1.12742 q 0,6.72919 1.3965,10.39328 l 0,0.28184 -1.9551,0.56373 -5.3066,0 q -2.758,0 -2.758,-4.22778 -1.1172,0 -1.1172,-10.11142 l 0.2792,-2.50144 q 0,-3.38224 -2.2343,-3.38224 -1.1172,0.45803 -1.1172,1.97297 l 0,5.31995 0.2793,0.28184 -0.2793,0.28185 0,12.08438 -1.3964,0.28189 -7.7854,0 -0.8379,-0.84557 0,-47.73861 0.8379,-1.1274 z m 22.1341,11.83777 0,7.39859 q -0.5586,0 -1.0124,-3.45266 l 0,-0.3171 q 0.5237,-3.62883 1.0124,-3.62883 z m -12.9523,-3.13559 0,7.57476 0.2793,3.10035 -0.2793,2.2548 0,0.28186 0.5586,0.5637 0.5586,0 q 2.2343,0 2.2343,-3.10036 l -0.2792,-5.03808 0,-0.84557 0.2792,-0.28184 -0.2792,-0.28184 0,-2.81853 q 0,-1.76158 -1.9551,-2.25482 l -1.1172,0.84557 z m 12.9523,20.68082 0,6.87015 q -0.7331,0 -1.187,-4.29824 l 0,-1.86726 q 0,-0.38754 1.187,-0.70465 z m -12.6381,22.01966 0.8728,0.17618 1.8853,-0.17618 0.3142,0 0,0.17618 2.0598,-0.17618 7.506,0 0,1.72635 -23.7051,0 0,-1.55017 9.2167,0 1.8503,-0.17618 z"
         style="font-style:normal;font-variant:normal;font-weight:normal;font-stretch:normal;font-size:medium;line-height:125%;font-family:Kuusinollakahdeksan;-inkscape-font-specification:Kuusinollakahdeksan;letter-spacing:0px;word-spacing:0px;fill:#800080;fill-opacity:1;stroke:none;stroke-width:1px;stroke-linecap:butt;stroke-linejoin:miter;stroke-opacity:1"
         id="path4413-6-8"
         inkscape:connector-curvature="0" />
      <path
         d="m -1131.4109,-325.31211 -0.07,0.28184 -5.2368,0 -0.035,-0.0704 q -0.1746,0.10573 -0.1746,0.21139 l 0,19.30683 q 0,0.38753 -0.2094,0.38753 l -0.1397,0 0,-20.43423 5.8652,0 0,0.31709 z m 11.8002,2.18434 1.5361,0.17615 -0.035,0.28185 -1.5361,-0.14092 0.035,-0.31708 z m 1.8503,0.17615 1.2219,0.14093 -0.035,0.3171 -1.2219,-0.14095 0.035,-0.31708 z m 1.5012,0.17616 2.1296,0.24661 0,0.28184 -2.1645,-0.21137 0.035,-0.31708 z m 2.4439,0.28187 1.2219,0.10573 -0.035,0.31708 -1.2219,-0.14093 0.035,-0.28185 z m 2.1296,0.21135 2.1645,0.24664 -0.035,0.3171 -2.1645,-0.24663 0.035,-0.31711 z m -14.1044,-0.88077 21.9945,2.36051 0.2793,0.35232 0.2792,0.0352 0.3492,-0.28184 0.2793,0.35232 0.3491,-0.28185 -0.07,0.59895 q 1.2219,0.14092 1.0823,1.374 l 0.5935,0.0704 -0.035,0.31708 -0.5935,-0.0704 -0.035,0.31706 0.6284,0.0704 -0.3492,0.28185 0.2794,0.3171 -0.419,3.73452 -0.5935,-0.0706 -0.035,0.31707 0.5935,0.0703 -0.035,0.28188 -0.5935,-0.0704 0.2793,0.35232 q -0.4189,0.98649 -1.3615,1.12738 l -0.2793,-0.3523 -0.07,0.59892 -0.2793,-0.0355 -0.2793,-0.31707 -1.571,0.14091 -0.9077,-0.10573 -0.2793,-0.35233 -0.3491,0.28185 -5.7954,-0.63414 -0.3142,0.28184 -2.6882,-0.91602 -1.2918,0.49323 -0.2793,-0.35232 -0.5935,-0.0355 -0.035,0.28188 0.5935,0.0703 -0.035,0.31708 -0.5935,-0.0704 -0.2793,2.4662 0.3142,0.0352 0.1396,-1.23309 0.3142,0.0355 -0.3142,2.78328 -0.3142,-0.0353 0.1397,-1.2331 -0.3142,-0.0352 -0.1049,1.23311 1.187,0.458 -0.07,0.63417 -0.3143,-0.0351 -0.2792,-0.35233 -0.3143,-0.0355 0,0.31708 0.2444,0.31709 0.6284,0.0703 0.3492,-0.28184 0.2444,0.35231 1.5361,0.17614 0.07,-0.63415 0.3142,0.0353 -0.07,0.63414 1.2219,0.14093 0.3142,-0.28185 0.3142,0.0355 -0.07,0.59893 2.1994,-0.38753 1.187,0.45799 1.5711,-0.14093 -0.07,0.59894 0.3142,0.0355 0.07,-0.59892 0.5936,0.0352 2.6882,0.91601 -0.3492,0.28186 -0.035,0.31707 q 0.9427,0.10573 0.8379,1.02172 l 0.2793,0.35232 0.2793,0.0351 -0.3491,3.41746 -0.3491,0.24663 0.2793,0.35233 -0.1746,1.86725 -0.3142,-0.0352 0.1047,-0.91601 -0.3142,-0.0355 q -0.1746,1.55017 -0.7681,1.4797 l -0.9426,0.21139 -0.2793,-0.35231 -0.07,0.63415 -0.2793,-0.35231 -0.3491,0.28187 -0.5935,-0.0704 -0.2793,-0.35232 -0.3142,-0.0352 -0.3142,0.28184 -0.2793,-0.35229 -0.3491,0.28185 0.035,-0.3171 -0.3491,0.28184 -0.5935,-0.0704 -0.2793,-0.31707 -0.3142,-0.0352 -0.3142,0.28184 0.035,-0.31708 -0.3491,0.28184 -0.3142,-0.0351 -2.6882,-0.63418 -0.3491,0.28188 0.035,-0.28188 -0.3492,0.24663 -0.3141,-0.0352 -0.2444,-0.31708 -0.3142,-0.0352 -0.035,0.31707 -0.2793,-0.35229 -0.3142,-0.0355 q -1.8154,-0.21141 -1.9201,0.73984 l -0.5586,-0.70462 0.3491,-0.28186 -0.3142,-0.0352 -0.3142,0.28186 -0.2793,2.50143 0.6284,0.0355 -0.035,0.31711 -0.6284,-0.0704 -0.2095,2.18433 -0.6284,-0.0703 -0.035,0.31708 1.2219,0.14095 -0.035,0.28184 -0.9077,-0.0704 q 0.1745,2.18435 0.6982,2.25482 l 0.6634,-0.56371 -0.035,0.31708 -0.3491,0.28186 -0.035,0.31707 0.3142,0.0352 0.3491,-0.28184 0.3142,0.0351 0.2444,0.3171 0.3491,-0.24663 -0.07,0.59892 0.3143,0.0352 0.07,-0.63416 0.3142,0.0355 -0.07,0.63418 1.571,-0.45801 -0.035,0.31706 0.3491,-0.28182 2.6882,0.91601 0.035,-0.31708 0.2793,0.3523 1.5361,-0.14091 1.2219,0.14091 1.5012,0.45801 0.3491,-0.28187 -0.035,0.3171 0.3142,-0.28185 0.3142,0.0352 0.2793,0.35233 0.3142,0.0352 0.035,-0.31708 0.2443,0.35229 0.6285,0.0355 0.349,-0.24661 0.2794,0.0351 -0.035,0.59893 0.3142,-0.28184 0.3142,0.0351 -0.2095,1.86727 0.6284,0.0703 -0.3491,0.28188 0.2793,0.31707 -0.4539,4.33347 -0.3491,0.28184 -0.035,0.3171 0.2793,0.35231 q -0.6284,-0.0703 -0.6982,0.84554 l -0.9776,0.21139 -0.2444,-0.31707 -0.07,0.59894 -1.5012,-0.45803 -0.035,0.31709 -0.2793,-0.35232 -1.8155,-0.21137 -0.3491,0.28184 -0.2793,-0.35232 -0.5935,-0.0703 -0.3491,0.28184 -0.2793,-0.31708 -0.9077,-0.10573 -0.3491,0.28189 -0.2793,-0.0353 0.07,-0.63416 -0.3142,-0.0352 -0.07,0.63416 -0.3143,-0.0351 0.07,-0.63414 -2.1995,0.38752 -1.5012,-0.458 -2.4438,-0.28187 -0.3142,0.28187 -0.3142,-0.0352 0.035,-0.31712 -0.3491,0.28187 -0.3142,-0.0352 -0.2444,-0.31708 -0.3142,-0.0353 -0.035,0.31711 -0.2793,-0.35233 -3.3516,-0.35232 -0.3491,0.24663 -0.8728,-0.38755 -2.793,0 -0.2443,-0.3523 -0.3492,0.28184 -0.2793,-0.31709 -0.3141,0.24662 -1.0125,-1.97296 0.1396,-1.55017 0.3492,-0.28186 -0.2793,-0.35231 0.035,-0.28184 0.4538,-1.51498 -0.2443,-0.35229 0.6633,-0.56371 -0.3142,-0.0352 -0.3142,0.28184 1.0822,-10.53419 0.3492,-0.28184 0.035,-0.28186 -0.3142,-0.0355 0.3491,-0.28185 0.035,-0.3171 -0.2095,-0.95124 0.2793,0.0352 -0.2443,-0.35233 1.4313,-13.63455 0.3491,-0.28186 -0.2792,-0.31707 0.3491,-3.41745 0.6284,0.0703 0.035,-0.31707 -0.6284,-0.0704 0.1745,-1.55016 0.5935,0.0703 -0.5236,-0.66942 q 1.2568,-2.07863 1.7455,-2.00819 l 0.8729,0.38757 -0.2793,-0.31713 0.035,-0.31706 z m 3.3515,0.66942 -0.035,0.31705 1.2219,0.10573 0.035,-0.28185 -1.2219,-0.14093 z m 2.7232,0.28183 -0.035,0.31708 1.222,0.14092 0.035,-0.31706 -1.222,-0.14094 z m 6.1095,0.66939 -0.035,0.31709 1.2219,0.10573 0.035,-0.28184 -1.2219,-0.14094 z m 7.6457,0.81033 -0.035,0.31708 2.1296,0.24661 0.035,-0.31705 -2.1296,-0.24664 z m 2.5835,19.41251 0.2793,0 -0.105,1.26835 -0.3142,-0.0353 0.1397,-1.2331 z m -27.9993,5.10856 0.2793,0.0352 -0.2095,2.14913 -0.3142,-0.0353 0.2444,-2.14913 z"
         style="font-style:normal;font-variant:normal;font-weight:normal;font-stretch:normal;font-size:medium;line-height:125%;font-family:Kuusinollakahdeksan;-inkscape-font-specification:Kuusinollakahdeksan;letter-spacing:0px;word-spacing:0px;fill:#800080;fill-opacity:1;stroke:none;stroke-width:1px;stroke-linecap:butt;stroke-linejoin:miter;stroke-opacity:1"
         id="path4415-4-5"
         inkscape:connector-curvature="0" />
      <path
         d="m -1089.835,-314.46084 6.3889,0.35231 q 0.4887,0.0352 0.6284,2.88899 0.4538,0.77508 0.8728,2.92422 0.4538,0.0355 0.7331,3.45267 0.4189,0.0351 0.7681,2.88897 0.5935,0.0353 0.4887,2.32525 0.5936,1.02172 1.2569,4.43917 0.2444,0.0352 0.6284,2.88899 0.4189,0.0355 0.8728,3.48791 0.4189,0.0355 0.4538,2.32527 0.8728,0.0355 0.8728,3.66406 l -0.7331,0.14094 -3.7356,-0.24662 q -1.3266,-0.0703 -1.9899,-2.00819 l 0.1745,-0.17617 0.07,-1.6911 -1.3965,-2.36052 -9.8102,-0.59891 q -1.4314,1.97295 -1.5362,3.73453 -0.2792,-0.0352 -0.6633,1.47971 -0.6633,0.70462 -1.5361,0.66939 l -2.2344,-0.14091 q -1.0473,-0.0704 -1.1171,-0.63418 0.07,-1.72634 1.1869,-3.73453 0.035,-0.7751 1.187,-2.78328 0.1048,-1.86727 1.0474,-2.99467 l 1.0474,-3.347 q 0.07,-0.91601 1.2219,-3.17083 0.1046,-2.04342 1.0124,-2.78329 0.07,-1.33877 1.0474,-2.60711 0.07,-1.90249 1.2568,-4.29822 0.035,-0.77511 1.0124,-2.43097 0.07,-1.69111 0.5237,-1.65588 z m -1.2917,19.13067 -0.035,0.38755 0.419,0.5989 2.4089,0.14095 0.5935,-0.17617 0.5935,0.2114 2.5137,0.17616 0.4887,-0.5637 0.035,-0.5637 q 0.035,-0.77511 -0.8728,-3.84022 0.07,-1.09218 -0.6285,-1.93774 0.1049,-2.36051 -0.8727,-4.0516 -0.07,-1.51496 -0.5237,-1.55019 l -0.2793,-0.0353 q -1.6409,2.5719 -1.7456,5.03811 -0.7332,-0.0355 -1.0474,3.17083 -0.8029,-0.0352 -1.0473,2.99467 z m -17.3163,32.65955 -0.07,1.05693 -1.0124,-0.10584 0.035,-0.52848 1.0473,-0.42279 z m -7.6806,0.95124 1.0473,0.10584 0.3142,0.52848 -0.035,1.09218 -0.7331,-0.0704 -0.5935,-1.12739 0,-0.52848 z m -1.4314,0.95125 1.7106,0.17616 0,0.52847 -1.7805,-0.17618 0.07,-0.52845 z m 33.8645,-4.08687 -0.035,-0.17614 -1.0125,-0.0355 0.035,0.17618 1.0125,0.0352 z m -1.2219,-0.0351 0,-0.17614 -1.1521,0 0,0.14092 1.1521,0.0352 z m -1.6409,-0.0353 -0.035,-0.17616 -3.7007,-0.10573 0,0.17617 3.7356,0.10573 z m -7.2617,-0.0704 0,-0.14091 -1.187,-0.0352 0,0.17614 1.187,0 z m 6.2493,-0.14091 0,-0.17618 -0.8728,-0.0351 0.035,0.17618 0.8378,0.0352 z m -2.5486,-0.38753 0,-0.17619 -0.6982,-0.0351 0.035,0.17617 0.6633,0.0352 z m -4.2243,0.0355 -5.551,-0.17615 0,-0.14092 5.551,0.14092 0,0.17615 z m 6.2143,-0.31707 -0.035,-0.17615 5.9001,0.17615 0.035,0.17614 -5.9001,-0.17614 z m 4.748,0.28184 -1.187,-0.0352 0,-0.17616 1.187,0.0353 0,0.17615 z m -12.3239,-0.35232 -1.5361,-0.0352 0,-0.17617 1.5012,0.0352 0.035,0.17617 z m -2.1994,-0.0352 -1.99,-0.0704 -0.035,-0.17615 2.0248,0.0703 0,0.17618 z m 7.4013,-0.28186 -0.035,-0.17615 8.2742,0.24661 0,0.14092 -8.2392,-0.21138 z m -5.3066,1.97296 -3.8403,-0.10573 -0.035,-0.17615 3.8752,0.10573 0,0.17617 z m 10.8576,-2.18435 -0.035,-0.14094 2.7232,0.0704 0,0.17614 -2.6882,-0.10573 z m -0.1746,0.0353 -1.3616,-0.0704 0,-0.14094 1.3616,0.0351 0,0.17617 z m -10.1594,1.83201 -1.0473,-0.0352 0,-0.17615 1.0124,0.0355 0.035,0.17615 z m -1.3964,-0.0352 -2.1995,-0.0704 0,-0.17616 2.1995,0.0704 0,0.17617 z m 8.7629,-0.4228 0.1745,-0.17615 -0.035,-0.17615 -0.4888,0.17615 0,0.17615 0.3491,0 z m -7.96,-0.59894 -0.035,-0.35229 -0.1746,-0.17615 0,-0.14093 0.1746,-0.17617 0.1397,0 0.2094,0.17617 0,0.31708 -0.1396,0.17616 0,0.17613 0.1745,0.1762 0.1397,0 0,-0.66943 -0.3491,-0.52844 q -0.5237,0 -0.4888,0.98646 l -0.3142,0 0,0.31711 0.6633,-0.2819 z m -4.1894,0.35234 -0.1396,0 -0.07,-0.63417 0.1745,0 0.035,0.63417 z m 5.5161,-0.66938 -0.1746,0 -0.035,-0.66942 0.1745,0 0.035,0.66942 z m -1.0474,-1.16265 -0.5236,-0.0351 -0.1746,-0.17618 -0.035,-0.31706 0.3491,0 0.3491,0.35228 0.035,0.17619 z m 0.6284,-0.3171 -0.8378,-0.0351 0,-0.17614 0.8378,0.0352 0,0.17614 z m 10.334,1.05695 -0.035,-0.17617 -1.0124,0 0.035,0.14096 1.0124,0.0352 z m -1.222,-0.0353 0,-0.14094 -1.1521,-0.0352 -0.035,0.17617 1.187,0 z m -1.6408,-0.0352 -0.035,-0.17614 -3.7007,-0.10573 0,0.17613 3.7356,0.10584 z m 0.4887,-0.14092 0,-0.14093 -1.7455,-0.0355 -0.035,0.17614 1.7805,0 z m -1.7106,0.66938 0.035,-0.17614 -1.0474,0 0.035,0.14092 0.9776,0.0351 z m -6.2493,0.0704 -8.2741,-0.0704 0,-0.17614 8.2741,0.10583 0,0.14095 z m -1.3266,-0.21137 0,-0.17616 5.9001,0.17616 0,0.14092 -5.9001,-0.14092 z m -0.6982,-0.14093 -2.2693,0 0.035,-0.17616 2.2344,0 0,0.17616 z m -3.2468,-0.0351 -3.0025,-0.0353 0,-0.17617 3.0025,0.0704 0,0.14094 z m 1.571,-0.24663 0,-0.14092 8.2392,0.21137 0.035,0.17618 -8.2741,-0.24663 z m 1.1521,-0.0351 -5.7256,-0.0704 0,-0.17617 5.7605,0.0704 -0.035,0.17615 z m 4.3989,-0.14092 0,-0.17619 2.6882,0.10583 0,0.14092 -2.6882,-0.0704 z m -0.1746,0 -1.3266,-0.0351 0,-0.17618 1.3266,0.0352 0,0.17619 z m -3.4214,-0.17619 -1.5361,-0.0353 0,-0.17615 1.5012,0.0352 0.035,0.17616 z m -2.0248,-0.0353 -3.2817,-0.0351 0.035,-0.17619 3.2468,0.0352 0,0.17615 z m 7.2965,0.28184 0,-0.17615 -0.2443,-0.10573 0,-0.0704 0.2443,-0.0703 0.2444,0 0.2444,0.0703 0.035,0.17617 -0.2443,0.0703 -0.035,0.10573 0.2793,0.0706 0.2095,0 0.035,-0.31707 -0.4888,-0.28184 q -0.768,0 -0.768,0.49321 l -0.4539,0 0,0.1762 0.9427,-0.14096 z m -6.1095,0.21139 -0.2444,0 0,-0.35231 0.2444,0 0,0.35231 z m 2.6882,-0.24662 0,-0.31707 -0.2444,-0.0353 0,0.35231 0.2444,0 z m -1.2219,0 -0.2444,0 0.7331,-0.24661 0,0.0703 -0.4887,0.17615 z m 6.5983,-0.14092 -0.2444,0 0,-0.3171 0.2793,0 -0.035,0.3171 z m -6.8427,-0.3523 0,-0.17616 0.7331,0 0,0.0704 -0.7331,0.10573 z m 5.3764,-0.24664 -0.7331,0 -0.2444,-0.0704 0,-0.17613 0.4887,0 0.4888,0.17613 0,0.0704 z m 0.9775,-0.14092 -1.2219,-0.0352 0,-0.0703 1.2568,0 -0.035,0.10573 z m 6.2842,5.07334 -0.035,-0.17617 -1.0125,-0.0352 0.035,0.17615 1.0125,0.0353 z m -1.2219,-0.0352 0,-0.17615 -1.1521,0 0,0.14092 1.1521,0.0355 z m -1.6409,-0.0355 -0.035,-0.17619 -3.7007,-0.10573 0,0.17616 3.7356,0.10573 z m -1.0124,-0.2114 0,-0.17616 -0.8728,-0.0352 0.035,0.17617 0.8378,0.0352 z m -2.5486,-0.38754 0,-0.17616 -0.6982,-0.0353 0.035,0.17615 0.6633,0.0355 z m 1.99,-0.28187 -0.035,-0.17614 5.9001,0.17614 0.035,0.17617 -5.9001,-0.17617 z m 4.748,0.28187 -1.187,-0.0355 0,-0.17615 1.187,0.0352 0,0.17619 z m -14.5233,-0.38756 -1.99,-0.0704 -0.035,-0.17615 2.0248,0.0704 0,0.17615 z m 7.4013,-0.28185 -0.035,-0.17614 8.2742,0.24661 0,0.14093 -8.2392,-0.2114 z m 5.551,-0.2114 -0.035,-0.1409 2.7232,0.0704 0,0.17613 -2.6882,-0.10573 z m -0.1746,0.0355 -1.3616,-0.0704 0,-0.14093 1.3616,0.0352 0,0.17617 z m -2.7929,1.37401 0.1745,-0.17615 -0.035,-0.17617 -0.4888,0.17617 0,0.17615 0.3491,0 z m -7.96,-0.59893 -0.035,-0.35233 -0.1746,-0.17613 0,-0.14094 0.1746,-0.17616 0.1397,0 0.2094,0.17616 0,0.31707 -0.1396,0.17619 0,0.17614 0.1745,0.17617 0.1397,0 0,-0.66942 -0.3491,-0.52846 q -0.5237,0 -0.4888,0.98647 l -0.3142,0 0,0.3171 0.6633,-0.28186 z m 1.3267,-0.31708 -0.1746,0 -0.035,-0.6694 0.1745,0 0.035,0.6694 z m -1.0474,-1.16263 -0.5236,-0.0352 -0.1746,-0.17614 -0.035,-0.31711 0.3491,0 0.3491,0.35233 0.035,0.17614 z m 0.6284,-0.31709 -0.8378,-0.0355 0,-0.17616 0.8378,0.0355 0,0.17615 z m 10.334,1.05691 -0.035,-0.17613 -1.0124,0 0.035,0.14094 1.0124,0.0352 z m -1.222,-0.0351 0,-0.14093 -1.1521,-0.0352 -0.035,0.17616 1.187,0 z m -1.6408,-0.0355 -0.035,-0.17614 -3.7007,-0.10583 0,0.17615 3.7356,0.10573 z m 0.4887,-0.14094 0,-0.14091 -1.7455,-0.0352 -0.035,0.17613 1.7805,0 z m -1.7106,0.66944 0.035,-0.17619 -1.0474,0 0.035,0.14093 0.9776,0.0351 z m -7.5759,-0.14096 0,-0.17615 5.9001,0.17615 0,0.14096 -5.9001,-0.14096 z m -0.6982,-0.14092 -2.2693,0 0.035,-0.17615 2.2344,0 0,0.17615 z m -3.2468,-0.0352 -3.0025,-0.0355 0,-0.17617 3.0025,0.0704 0,0.14091 z m 1.571,-0.24663 0,-0.14091 8.2392,0.2114 0.035,0.17614 -8.2741,-0.24663 z m 1.1521,-0.0352 -5.7256,-0.0704 0,-0.17617 5.7605,0.0703 -0.035,0.17614 z m 4.3989,-0.14093 0,-0.17615 2.6882,0.10573 0,0.14091 -2.6882,-0.0703 z m -0.1746,0 -1.3266,-0.0351 0,-0.17614 1.3266,0.0352 0,0.17618 z m -3.4214,-0.17615 -1.5361,-0.0352 0,-0.1762 1.5012,0.0352 0.035,0.17615 z m -2.0248,-0.0352 -3.2817,-0.0355 0.035,-0.17614 3.2468,0.0352 0,0.17616 z m 7.2965,0.28184 0,-0.17616 -0.2443,-0.10573 0,-0.0704 0.2443,-0.0703 0.2444,0 0.2444,0.0703 0.035,0.17615 -0.2443,0.0703 -0.035,0.10573 0.2793,0.0704 0.2095,0 0.035,-0.31709 -0.4888,-0.28185 q -0.768,0 -0.768,0.49324 l -0.4539,0 0,0.17615 0.9427,-0.14092 z m -6.1095,0.21138 -0.2444,0 0,-0.35232 0.2444,0 0,0.35232 z m 2.6882,-0.24662 0,-0.31708 -0.2444,-0.0352 0,0.35233 0.2444,0 z m -1.2219,0 -0.2444,0 0.7331,-0.2466 0,0.0703 -0.4887,0.17617 z m 6.5983,-0.14092 -0.2444,0 0,-0.31708 0.2793,0 -0.035,0.31708 z m -6.8427,-0.35233 0,-0.17614 0.7331,0 0,0.0704 -0.7331,0.10573 z m 5.3764,-0.2466 -0.7331,0 -0.2444,-0.0704 0,-0.17616 0.4887,0 0.4888,0.17616 0,0.0704 z m 0.9775,-0.14095 -1.2219,-0.0351 0,-0.0703 1.2568,0 -0.035,0.10573 z m -50.1334,-57.81477 0.2793,0.28185 0,0.31707 -0.2793,0.28187 -0.5586,0 0,-0.3171 0.5586,-0.56369 z m 67.2402,45.34285 q 0,1.26834 1.0474,1.83203 l 0.2095,0.14094 1.3616,0.0703 q 0.6633,-0.59894 1.0124,-0.59894 0.4189,-1.23308 0.4189,-1.65588 l 0,-0.14092 q -0.384,-1.12741 -0.768,-1.23311 0,-0.45799 -1.3965,-0.81032 -1.1172,-0.0353 -1.7456,0.84555 l -0.1397,1.5502 z m -9.1818,7.68044 q 0.3841,0.0352 0.2793,2.11391 l 0.1397,0.0352 0.035,-1.1274 -0.07,-0.66939 0.1397,-0.31712 5.6208,0.81033 -0.1746,3.87548 -24.7874,-3.27653 0.1397,-3.94593 18.6778,2.50143 z m 1.4664,-8.27938 -0.07,0.24662 0.1397,0 0.07,-0.24662 -0.1396,0 z"
         style="font-style:normal;font-variant:normal;font-weight:normal;font-stretch:normal;font-size:medium;line-height:125%;font-family:Kuusinollakahdeksan;-inkscape-font-specification:Kuusinollakahdeksan;letter-spacing:0px;word-spacing:0px;fill:#800080;fill-opacity:1;stroke:none;stroke-width:1px;stroke-linecap:butt;stroke-linejoin:miter;stroke-opacity:1"
         id="path4417-9-2"
         inkscape:connector-curvature="0" />
      <path
         d="m -1073.64,-321.50713 0,0.10573 0,0 0,-0.10573 0,0.10573 0.1048,0 0,41.78448 -0.1048,0 0,0.10573 0,-0.10573 0,0 0,0.10573 q 0,-0.35232 0,-0.35232 l 0,-0.14092 0,-0.24663 0,-0.10573 0,-0.14091 0,-10.42852 0,-0.14092 0,-0.10583 0,-0.14092 q 0,-1.23311 -0.035,-1.5502 l 0,-3.94591 q 0.035,0 0.035,-0.49324 l 0,0 0,-0.38754 0,-0.10573 0,-0.1409 0,-1.69113 0,-1.90248 0,-0.35231 0,-2.04344 0,-0.70463 0,-0.24659 0,-0.14095 0,-0.10573 0,-15.78368 0,-0.10584 0,-0.14092 q 0,-0.17618 0,-0.35233 z m 11.905,-1.6911 0,0.28186 0.2792,0.2466 -0.2792,0 -0.2445,-0.2466 -0.2792,0.2466 -6.3191,0 -0.5237,0.52846 0,5.31995 0.2793,0.24663 -0.5236,2.67759 -2.0948,0 0.2444,-0.28186 0,-0.24662 -1.0473,0 0,3.98116 0.2793,0.24661 -0.2793,0.28185 0,2.92422 0.5236,0.49325 q 0.7681,0 0.7681,-1.02173 l 0.2793,0 q 0,0.56372 0.803,1.02173 0.768,0 0.768,1.37402 l 0,13.52886 0.2793,0.24662 0,0.28186 -0.2793,0 q 1.5012,4.75624 2.0948,4.75624 1.0822,0 1.6059,1.58543 1.8503,0.21139 1.8503,1.09216 l 6.0398,0 q 3.561,0 4.4687,-1.58542 l -0.2793,-1.33879 0,-3.17083 q 0,-2.39574 -1.2917,-2.39574 l 0,0.52847 -0.803,0 -0.2793,-0.24663 -0.2444,0 -0.2793,0.24663 -0.2444,-0.24663 0,0.24663 q -2.0947,-0.52847 -2.0947,-1.05694 l 0.5237,-2.67758 -0.2793,-0.28185 0.2793,0 -0.2793,-0.24664 0.2793,-1.33879 -0.2793,-0.24661 0.2793,-0.28186 -0.2793,-1.30358 0,-2.39573 0.2793,-0.28184 -0.2793,-0.24661 0,-0.77511 0.2793,-0.28186 -0.2793,-0.28182 0,-0.24663 0.2793,-0.28187 0,-0.28182 -0.5237,-0.52849 q 0,-1.40924 1.8504,-2.3605 l 1.571,0.49325 1.0473,0 0.7681,-2.1139 0,-1.02168 -0.2444,-0.28189 0.2444,-0.28185 0,-2.11389 0.2793,-1.05693 q -0.384,-1.05695 -0.803,-1.05695 l 0,0.24662 -0.2444,-0.24662 -1.6059,0 -1.8154,0.52848 0,-0.28186 q 0,-0.63414 -1.0474,-0.81032 l 0.2444,-0.24662 -0.2444,-0.28184 0.2444,-1.30358 0,-2.11389 -0.4888,-2.14911 0.4888,-0.52846 0,-1.05695 -1.2917,-0.2466 -0.2793,0.2466 -1.8503,-0.52846 z"
         style="font-style:normal;font-variant:normal;font-weight:normal;font-stretch:normal;font-size:medium;line-height:125%;font-family:Kuusinollakahdeksan;-inkscape-font-specification:Kuusinollakahdeksan;letter-spacing:0px;word-spacing:0px;fill:#800080;fill-opacity:1;stroke:none;stroke-width:1px;stroke-linecap:butt;stroke-linejoin:miter;stroke-opacity:1"
         id="path4419-4-1"
         inkscape:connector-curvature="0" />
      <path
         d="m -1203.0832,-266.03311 0,-0.19688 1.99,0 0,0.19688 -0.3902,0 0,0.19688 -1.5998,-0.19688 z m 3.5506,-0.19688 1.1706,0 0,0.19688 -0.3902,0.39375 -0.1951,0 -0.5853,-0.59063 z m 1.7558,1.57499 1.2096,0 -0.2341,0.19688 0,0.19687 0.2341,0.19689 -1.2096,0.62999 -0.195,-0.1969 0,-0.23622 0.195,-0.19687 -0.195,0 0.195,-0.59064 z m -2.4581,0.59064 0.5853,0 0,0.43309 -0.6243,-0.23622 0.039,-0.19687 z m -3.0043,0.1575 0.2341,0.0396 0.1951,-0.0396 0.3901,0 1.6778,0.0787 1.2486,0.0396 1.8338,0.0786 3.5116,0.0786 0.2341,0.0396 0.1951,0 0,-0.0396 0.1951,0.0396 0.1951,0 0.8584,0 0,0.0392 0.1951,0 0.6242,0 1.6388,0.0786 1.6777,0.0394 0.1951,0.0394 0.1951,0 0.1951,-0.0394 0,0.0394 0.2341,-0.0394 5.3454,0.1969 0,0.19685 -8.0376,-0.23622 -0.2341,-0.0396 -0.1951,0 -0.1951,0 -0.1951,-0.0394 0,0.0394 -0.2341,-0.0394 -1.0144,0 -0.2342,-0.0395 -1.0144,0 -6.2038,-0.19686 -0.1951,-0.0395 -0.1951,0.0395 -0.6243,-0.0395 -0.2341,-0.0394 -0.1951,0.0394 -0.1951,-0.0394 -0.2341,0 -0.5853,0 -0.2341,-0.0392 -1.0144,0 -4.6431,-0.0786 0,-0.23624 4.8382,0.11814 z m 14.2805,29.33428 0.3121,0 -0.078,2.75625 -0.4682,0 -0.2731,-0.43312 0,-0.43313 q 0.039,-0.7875 0.5072,-1.89 z m -0.1561,5.94562 0.2731,0 -0.2341,7.87497 -0.3121,0 q -1.1706,-1.45688 -1.0535,-4.5281 l 0.1561,-0.1969 -0.1561,0 q 0.1172,-1.45686 1.3266,-3.14997 z m -18.2603,25.35744 0,-0.1969 23.9959,0.74812 0,0.19688 -23.9959,-0.7481 z m 27.8977,-51.26613 -7.4134,32.99617 0,0.19687 -0.078,0 0,-0.19687 7.4134,-32.99617 0,-0.19688 0.078,0 0,0.19688 z m -18.4164,-1.53563 0.3902,0.55127 -0.4682,0.39375 -0.3902,-0.55126 0.4682,-0.39376 z m -1.5607,-1.61435 1.4827,0.19687 q 2.0679,0.19687 1.9509,1.29938 l -2.6532,20.90806 -0.5853,1.65375 0.078,2.59872 0,0.27564 -0.6243,2.51999 q -0.1561,1.4175 3.5896,2.40188 l 0.3902,-0.27565 2.4191,0.59065 7.2963,0.94498 q 0.7023,0.43313 0.5853,1.57501 l -0.4682,0.78748 0.195,1.4175 q -0.8193,1.26001 -1.5216,1.29939 l -3.8628,-0.4725 -1.0925,0.19688 -1.7168,-0.5119 -0.3511,-0.0392 -10.7689,-1.53564 q -1.6388,-0.62998 -1.3266,-7.44186 0.8974,-1.77185 3.5116,-21.9318 1.1315,-6.45748 2.1069,-6.33936 l 1.3656,-0.11814 z m 9.9885,37.76051 0.6633,0.11827 -0.078,0.945 -1.6387,1.2206 -0.3902,-0.55122 q 1.4046,-0.9844 1.4437,-1.7325 z m -3.7457,1.29938 0.1951,0.27561 -0.039,0.51188 -0.2341,-0.0395 -0.3901,-0.55125 0.2341,-0.23626 0.2341,0.0392 z m -15.8802,0.19689 0,0.19685 0.3902,0.66938 0.039,-0.59064 -0.4292,-0.27559 z m 14.6317,3.85873 0.6633,0.11826 -0.039,0.47248 -0.6633,-0.11814 0.039,-0.47252 z m -0.6633,0.39374 0.195,0.0396 q 6.9842,2.52001 5.3065,2.24438 l 0.039,-0.23625 -5.5405,-2.04749 z m -12.7588,-1.37814 -0.039,0.23628 0.3511,1.06311 0.2732,0.0395 0.039,-0.39374 q -0.4292,-0.0786 -0.3512,-0.66937 l -0.1561,-0.23625 -0.1171,-0.0392 z m 16.9727,3.70127 0.1951,0.27561 -0.039,0.51186 q -0.078,0.6694 -2.263,0.63002 l -0.5853,-0.86625 q 0.078,-0.945 2.6922,-0.55124 z m -16.1144,-1.89001 -0.078,0.82689 0.5463,0.27563 0.078,-0.78752 -0.5463,-0.315 z m 0.5853,1.33876 1.0145,1.61437 0.2731,0.0394 0,-0.19689 q 0.039,-0.35436 -0.6243,-0.70873 0.039,-0.63001 -0.2341,-0.66941 l -0.4292,-0.0786 z m 64.5353,-14.05684 0.3122,0.31498 0,0.3544 -0.3122,0.31497 -0.6242,0 0,-0.35435 0.6242,-0.63 z m -19.2357,14.2931 q 0,1.88998 1.7558,2.71686 l 0.3512,0.19685 2.341,0.0786 q 1.1315,-0.86625 1.6778,-0.86625 0.7413,-1.81124 0.7413,-2.40187 l 0,-0.23625 q -0.6633,-1.65374 -1.2876,-1.81126 0,-0.63 -2.38,-1.14186 -1.8729,-0.0394 -2.9264,1.22063 l -0.2731,2.24437 z m -32.3067,10.19809 q 0.3122,0.0786 0.3512,1.73248 l 0.1171,0.0394 -0.039,-0.9056 -0.078,-0.55125 0.078,-0.23627 5.0333,0.86627 0.078,3.07122 -22.1621,-3.62249 -0.1171,-3.11062 16.7386,2.71688 z m 47.6797,8.22933 -0.039,0.27564 0.1561,0 0.039,-0.27564 -0.1561,0 z"
         style="font-style:normal;font-variant:normal;font-weight:normal;font-stretch:normal;font-size:medium;line-height:125%;font-family:Kuusinollakahdeksan;-inkscape-font-specification:Kuusinollakahdeksan;letter-spacing:0px;word-spacing:0px;fill:#800080;fill-opacity:1;stroke:none;stroke-width:1px;stroke-linecap:butt;stroke-linejoin:miter;stroke-opacity:1"
         id="path4421-4-5"
         inkscape:connector-curvature="0" />
      <path
         d="m -1181.4775,-254.37814 0.2341,1.88997 0,1.49627 -0.5073,7.95371 0.1561,4.52814 -0.3512,3.03185 0.1561,5.27624 -0.3901,3.77998 0.234,3.03189 -0.3901,2.6381 0.1561,5.31562 -0.078,3.77999 -0.4292,4.88247 0.2341,4.17377 1.4436,0.43309 9.3643,0.31501 1.5217,-0.31501 1.3266,-52.17171 -0.8974,-1.14187 -9.6374,-0.3544 q -1.2876,-0.0392 -2.146,1.45689 z"
         style="font-style:normal;font-variant:normal;font-weight:normal;font-stretch:normal;font-size:medium;line-height:125%;font-family:Kuusinollakahdeksan;-inkscape-font-specification:Kuusinollakahdeksan;letter-spacing:0px;word-spacing:0px;fill:#800080;fill-opacity:1;stroke:none;stroke-width:1px;stroke-linecap:butt;stroke-linejoin:miter;stroke-opacity:1"
         id="path4423-6-5"
         inkscape:connector-curvature="0" />
      <path
         d="m -1162.9153,-262.25313 2.185,0 0,0.51187 -2.068,0 -0.117,-0.51187 z m 2.7703,0 2.224,0 0,0.51187 -2.068,0 -0.156,-0.51187 z m 4.565,0 1.9119,0 0,0.15751 -0.2731,0.35436 -1.4827,0 -0.1561,-0.51187 z m 5.1504,0.15751 0,-0.15751 2.6532,0 0,0.15751 -0.3122,0.35436 -2.0289,0 -0.3121,-0.35436 z m 3.2384,-0.15751 0.4292,0 0,0.15751 -0.2731,0.35436 -0.1561,-0.1575 0,-0.35437 z m 1.7558,0 0.5853,0 -0.1561,0.51187 -0.2731,0 -0.1561,-0.51187 z m 1.9119,0 0.8974,0 0,0.15751 -0.3121,0.35436 -0.4292,0 -0.1561,-0.51187 z m 1.9119,0.15751 0,-0.15751 1.7558,0 0,0.15751 -0.2732,0.35436 -1.1705,0 -0.3121,-0.35436 z m 2.6532,0 0,-0.15751 0.5852,0 -0.156,0.51187 -0.1561,0 -0.2731,-0.35436 z m 2.3411,0 0,-0.15751 0.4682,0 0,0.51187 -0.1561,0 -0.3121,-0.35436 z m 1.3265,-0.15751 1.3266,0 0,0.51187 -1.1705,0 -0.1561,-0.51187 z m 1.9119,0.15751 0,-0.15751 0.4292,0 0,0.51187 -0.1171,0 -0.3121,-0.35436 z m 1.3266,-0.15751 1.9119,0 0,0.15751 -0.2731,0.35436 -1.4827,0 -0.1561,-0.51187 z m 3.3946,0.15751 0,-0.15751 1.1705,0 0,0.51187 -0.8974,0 -0.2731,-0.35436 z m 1.7558,0 0,-0.15751 0.4292,0 0,0.51187 -0.1171,0 -0.3122,-0.35436 z m 2.8092,0 0,-0.15751 2.185,0 0,0.15751 -0.2731,0.35436 -1.6387,0 -0.2732,-0.35436 z m 3.2385,-0.15751 0.4292,0 0,0.15751 -0.3121,0.35436 -0.1171,0 0,-0.51187 z m 1.2876,0.15751 0,-0.15751 1.7948,0 0,0.51187 -1.4826,0 -0.3122,-0.35436 z m 2.8093,0 0,-0.15751 1.7558,0 0,0.15751 -0.2731,0.35436 -1.1706,0 -0.3121,-0.35436 z m 2.341,-0.15751 0.4683,0 0,0.15751 -0.3122,0.35436 -0.1561,0 0,-0.51187 z m 1.7948,0.15751 0,-0.15751 0.5853,0 -0.1561,0.51187 -0.156,0 -0.2732,-0.35436 z m -49.8646,14.5687 0.2341,0.0394 q 0.3902,0.0395 1.0145,5.59123 l 2.8092,17.63997 1.9899,12.67871 1.1706,0.55124 2.8092,0.27565 0.2342,-0.1969 0.195,0.23626 0.5463,0.0394 q 1.7168,0.15748 2.3801,-3.14999 l 11.6663,-32.20868 2.4191,-6.33936 -0.5463,-0.90561 -4.0188,-0.35438 q -1.6388,-0.1575 -1.8728,2.36249 l -5.3845,16.02558 q -4.1749,11.73373 -5.1113,15.39559 l -0.7023,0.39376 -0.1951,-0.0394 -1.7948,-12.44248 -2.068,-12.48185 q -1.0925,-10.94622 -2.185,-11.02498 l -4.9943,-0.47248 q 0.039,0 1.4047,8.38685 z m 79.0499,41.93427 0.1561,0 q 0.5072,0 0.4682,0.86623 1.3266,1.02377 1.2876,2.0475 l -4.331,-0.0786 0.078,-1.37813 q 0.039,-0.90563 2.3411,-1.45687 z m -46.8993,-0.39374 0.3512,0 q 1.3266,0.0395 1.2485,1.02372 l -0.156,0.0787 0.156,0.4331 -0.1951,1.18127 -3.1214,-0.0394 0,-1.06315 0.2342,-0.43309 -0.1562,-0.43312 q 0.4683,-0.74814 1.6388,-0.74814 z m 11.4322,0.15751 q 0.8194,0.27561 0.7803,0.86621 l -0.039,1.81127 -3.1214,0 0,-0.66937 q 0.078,-2.0475 1.2095,-2.00811 l 1.1705,0 z m 13.4221,0.15748 0.8194,0 q 0.6633,0.19687 0.6243,0.98438 l -0.039,1.73247 -3.1214,-0.0786 0.039,-1.49623 q 0.039,-1.14189 1.6777,-1.14189 z m 6.633,0.0786 0.6633,0 q 1.0535,0 1.5998,1.22063 l -0.7024,1.49623 -2.8092,-0.0396 -0.2732,-0.98437 q 0.039,-1.69312 1.5217,-1.69312 z m 7.5695,1.85061 1.0144,0 0.2731,0.19687 -0.156,0.74815 -2.8093,-0.0396 0,-0.11815 q 0.039,-0.82687 1.6778,-0.78749 z"
         style="font-style:normal;font-variant:normal;font-weight:normal;font-stretch:normal;font-size:medium;line-height:125%;font-family:Kuusinollakahdeksan;-inkscape-font-specification:Kuusinollakahdeksan;letter-spacing:0px;word-spacing:0px;fill:#800080;fill-opacity:1;stroke:none;stroke-width:1px;stroke-linecap:butt;stroke-linejoin:miter;stroke-opacity:1"
         id="path4425-3-7"
         inkscape:connector-curvature="0" />
      <path
         d="m -1132.5697,-259.37875 -0.078,0.31498 -5.8527,0 -0.039,-0.0787 q -0.1951,0.11814 -0.1951,0.23624 l 0,21.57744 q 0,0.43314 -0.2341,0.43314 l -0.1561,0 0,-22.83744 6.555,0 0,0.35437 z m 13.188,2.44122 1.7168,0.19689 -0.039,0.315 -1.7168,-0.1575 0.039,-0.35439 z m 2.0679,0.19689 1.3656,0.1575 -0.039,0.35437 -1.3657,-0.15749 0.039,-0.35438 z m 1.6778,0.19687 2.3801,0.27562 0,0.31501 -2.4191,-0.23624 0.039,-0.35439 z m 2.7312,0.315 1.3657,0.11815 -0.039,0.35437 -1.3656,-0.1575 0.039,-0.315 z m 2.3801,0.23624 2.4191,0.27564 -0.039,0.35439 -2.4191,-0.27564 0.039,-0.35439 z m -15.7632,-0.98437 24.5812,2.63814 0.3122,0.39374 0.3121,0.0394 0.3902,-0.31501 0.3121,0.39375 0.3902,-0.31498 -0.078,0.66936 q 1.3656,0.1575 1.2096,1.5356 l 0.6633,0.0787 -0.039,0.35436 -0.6633,-0.0786 -0.039,0.35435 0.7023,0.0786 -0.3902,0.31502 0.3122,0.35436 -0.4683,4.17376 -0.6632,-0.0787 -0.039,0.35439 0.6633,0.0786 -0.039,0.31499 -0.6633,-0.0786 0.3121,0.39374 q -0.4682,1.1025 -1.5217,1.26001 l -0.3121,-0.39377 -0.078,0.66939 -0.3121,-0.0394 -0.3122,-0.35437 -1.7558,0.1575 -1.0144,-0.11815 -0.3122,-0.39375 -0.3902,0.31498 -6.4769,-0.70873 -0.3512,0.31499 -3.0044,-1.02374 -1.4436,0.55125 -0.3121,-0.39376 -0.6634,-0.0394 -0.039,0.31501 0.6634,0.0786 -0.039,0.35436 -0.6633,-0.0786 -0.3122,2.75623 0.3512,0.0394 0.1561,-1.37812 0.3511,0.0394 -0.3511,3.11063 -0.3512,-0.0394 0.1561,-1.3781 -0.3512,-0.0395 -0.1171,1.37814 1.3266,0.51186 -0.078,0.70875 -0.3512,-0.0394 -0.3121,-0.39374 -0.3512,-0.0394 0,0.35437 0.2732,0.35437 0.7023,0.0786 0.3902,-0.31502 0.2731,0.39376 1.7168,0.19688 0.078,-0.70875 0.3512,0.0395 -0.078,0.70875 1.3656,0.1575 0.3512,-0.315 0.3511,0.0394 -0.078,0.66938 2.4581,-0.43312 1.3266,0.51189 1.7558,-0.15751 -0.078,0.66937 0.3512,0.0396 0.078,-0.66937 0.6633,0.0396 3.0044,1.02374 -0.3902,0.31501 -0.039,0.35437 q 1.0535,0.11815 0.9364,1.14187 l 0.3122,0.39375 0.3121,0.0395 -0.3902,3.81937 -0.3901,0.2756 0.3121,0.39376 -0.1951,2.08689 -0.3511,-0.0394 0.1172,-1.02375 -0.3512,-0.0395 q -0.1951,1.73248 -0.8584,1.65375 l -1.0535,0.23624 -0.3121,-0.39375 -0.078,0.70876 -0.3122,-0.39374 -0.3901,0.31497 -0.6633,-0.0786 -0.3122,-0.39373 -0.3511,-0.0396 -0.3512,0.31501 -0.3122,-0.39375 -0.3901,0.31498 0.039,-0.35437 -0.3902,0.31499 -0.6633,-0.0786 -0.3121,-0.35438 -0.3512,-0.0396 -0.3512,0.31501 0.039,-0.35438 -0.3902,0.31502 -0.3511,-0.0394 -3.0044,-0.70873 -0.3901,0.31499 0.039,-0.31499 -0.3901,0.27562 -0.3512,-0.0396 -0.2731,-0.35437 -0.3512,-0.0395 -0.039,0.35436 -0.3121,-0.39373 -0.3512,-0.0394 q -2.0289,-0.23628 -2.146,0.82684 l -0.6243,-0.78748 0.3902,-0.31501 -0.3511,-0.0394 -0.3512,0.315 -0.3121,2.79561 0.7023,0.0392 -0.039,0.3544 -0.7023,-0.0786 -0.2341,2.44125 -0.7023,-0.0787 -0.039,0.35437 1.3656,0.15749 -0.039,0.31503 -1.0145,-0.0786 q 0.1951,2.44126 0.7804,2.52002 l 0.7413,-0.62999 -0.039,0.35436 -0.3901,0.315 -0.039,0.35439 0.3511,0.0394 0.3902,-0.31498 0.3512,0.0394 0.2731,0.35436 0.3902,-0.27563 -0.078,0.66938 0.3511,0.0392 0.078,-0.70873 0.3512,0.0392 -0.078,0.70874 1.7558,-0.51186 -0.039,0.35437 0.3902,-0.315 3.0043,1.02374 0.039,-0.35436 0.3121,0.39373 1.7168,-0.15748 1.3656,0.15748 1.6778,0.5119 0.3902,-0.31503 -0.039,0.3544 0.3512,-0.31501 0.3511,0.0394 0.3122,0.39373 0.3511,0.0392 0.039,-0.35438 0.2732,0.39376 0.7023,0.0394 0.3902,-0.27562 0.3121,0.0394 -0.039,0.66937 0.3511,-0.31498 0.3512,0.0395 -0.2341,2.0869 0.7023,0.0786 -0.3902,0.31499 0.3121,0.35437 -0.5072,4.84312 -0.3901,0.315 -0.039,0.35438 0.3121,0.39375 q -0.7023,-0.0786 -0.7803,0.945 l -1.0925,0.23624 -0.2732,-0.35438 -0.078,0.66938 -1.6778,-0.51188 -0.039,0.35437 -0.3122,-0.39373 -2.0289,-0.23625 -0.3902,0.31498 -0.3121,-0.39375 -0.6633,-0.0786 -0.3902,0.31501 -0.3121,-0.35438 -1.0145,-0.11813 -0.3902,0.31499 -0.3121,-0.0394 0.078,-0.70874 -0.3512,-0.0394 -0.078,0.70875 -0.3511,-0.0394 0.078,-0.70875 -2.4581,0.43312 -1.6778,-0.51188 -2.7312,-0.31499 -0.3512,0.31499 -0.3511,-0.0394 0.039,-0.35439 -0.3903,0.315 -0.3511,-0.0395 -0.2731,-0.3544 -0.3512,-0.0395 -0.039,0.35436 -0.3122,-0.39373 -3.7457,-0.39375 -0.3901,0.27561 -0.9754,-0.43313 -3.1215,0 -0.2731,-0.39374 -0.3902,0.315 -0.3121,-0.35437 -0.3512,0.27562 -1.1315,-2.20501 0.1561,-1.73249 0.3902,-0.315 -0.3122,-0.39373 0.039,-0.31501 0.5072,-1.69311 -0.2731,-0.39376 0.7413,-0.62999 -0.3511,-0.0394 -0.3512,0.31501 1.2096,-11.77311 0.3901,-0.315 0.039,-0.315 -0.3511,-0.0392 0.3901,-0.315 0.039,-0.35438 -0.2341,-1.06312 0.3121,0.0396 -0.2731,-0.39377 1.5998,-15.23809 0.3901,-0.31499 -0.3121,-0.35436 0.3902,-3.81938 0.7023,0.0787 0.039,-0.35436 -0.7023,-0.0786 0.1951,-1.73248 0.6633,0.0786 -0.5853,-0.74815 q 1.4047,-2.3231 1.9509,-2.24435 l 0.9754,0.43312 -0.3121,-0.35438 0.039,-0.35438 z m 3.7458,0.74813 -0.039,0.35438 1.3656,0.11814 0.039,-0.31503 -1.3657,-0.15749 z m 3.0433,0.315 -0.039,0.35437 1.3656,0.15753 0.039,-0.35439 -1.3656,-0.15751 z m 6.8281,0.74811 -0.039,0.35439 1.3657,0.11828 0.039,-0.31499 -1.3656,-0.15751 z m 8.5449,0.90563 -0.039,0.35439 2.3801,0.27563 0.039,-0.3544 -2.3801,-0.27562 z m 2.8873,21.69558 0.3122,0 -0.1172,1.4175 -0.3512,-0.0395 0.1561,-1.37812 z m -31.2922,5.70937 0.3122,0.0396 -0.2342,2.40184 -0.3511,-0.0394 0.2731,-2.40186 z"
         style="font-style:normal;font-variant:normal;font-weight:normal;font-stretch:normal;font-size:medium;line-height:125%;font-family:Kuusinollakahdeksan;-inkscape-font-specification:Kuusinollakahdeksan;letter-spacing:0px;word-spacing:0px;fill:#800080;fill-opacity:1;stroke:none;stroke-width:1px;stroke-linecap:butt;stroke-linejoin:miter;stroke-opacity:1"
         id="path4427-5-42"
         inkscape:connector-curvature="0" />
      <path
         d="m -1072.0244,-261.22938 0.8974,0 q 3.5897,0 10.4958,1.29937 7.4134,2.20499 8.5839,3.3075 l 0.3121,0.31499 0,0.66938 -1.7948,5.59124 q -0.8584,0 -1.2485,3.5831 l -2.185,2.32313 -0.2732,0 q -1.7558,-1.65375 -5.2283,-1.65375 -1.5998,-0.98436 -4.331,-0.98436 l -4.9162,0 q -6.1649,1.49623 -6.1649,4.25249 l -0.6242,0.66935 0,1.65376 q 0,3.26811 5.5405,4.92186 8.779,2.00811 14.4756,5.23686 5.8526,3.93747 7.4133,10.23748 l 0.5853,2.95309 0,3.58313 q -0.2731,5.74873 -4.0188,11.81248 -7.1403,7.2056 -11.3932,7.2056 0,1.33875 -10.1446,1.33875 -8.4279,0 -14.1635,-1.96875 l -4.6041,-1.65374 0,-1.65373 q 1.2486,-1.33875 1.2486,-4.25251 0.7804,0 1.7948,-5.23687 l 1.5607,-1.65373 q 9.4033,2.28374 12.9539,2.28374 9.5594,0 9.5594,-4.92186 l 0,-1.96874 q 0,-5.15811 -11.7053,-6.85125 -2.068,-1.22058 -5.2674,-2.00811 -7.4134,-3.85874 -9.2082,-9.17436 l -1.2486,-3.66186 0,-8.81999 q 0.4682,-3.70122 4.9162,-9.25309 l 3.4336,-2.91373 5.1894,-2.59875 q 7.1402,-2.00812 9.5593,-2.00812 z m 25.8688,19.25435 2.5751,0.47247 -0.5462,29.33432 -0.078,0 q -0.3512,-0.0786 -0.5073,-5.00063 l -1.1315,-13.89934 -0.6633,-8.38685 -0.156,-0.78749 0,-1.02376 q 0.117,-0.78748 0.5072,-0.70872 z m 1.7558,45.24174 -0.1951,8.7806 -2.6922,-0.51188 0.1172,-6.18187 q 0,-1.53559 0.5072,-1.45685 l 0.6633,0.39375 1.4827,-1.02375 0.1172,0 z"
         style="font-style:normal;font-variant:normal;font-weight:normal;font-stretch:normal;font-size:medium;line-height:125%;font-family:Kuusinollakahdeksan;-inkscape-font-specification:Kuusinollakahdeksan;letter-spacing:0px;word-spacing:0px;fill:#800080;fill-opacity:1;stroke:none;stroke-width:1px;stroke-linecap:butt;stroke-linejoin:miter;stroke-opacity:1"
         id="path4429-9-2"
         inkscape:connector-curvature="0" />
      <ellipse
         ry="1.1364217"
         rx="70.458138"
         cy="-179.37224"
         cx="-1130.9266"
         id="path6971"
         style="opacity:1;fill:#800080;fill-opacity:0.87349399;stroke:none;stroke-width:1.93599999;stroke-miterlimit:4;stroke-dasharray:none;stroke-opacity:0.68047336" />
    </g>
  </g>
</svg>
