<?xml version="1.0" encoding="UTF-8" standalone="no"?>
<!-- Created with Inkscape (http://www.inkscape.org/) -->

<svg
   xmlns:dc="http://purl.org/dc/elements/1.1/"
   xmlns:cc="http://creativecommons.org/ns#"
   xmlns:rdf="http://www.w3.org/1999/02/22-rdf-syntax-ns#"
   xmlns:svg="http://www.w3.org/2000/svg"
   xmlns="http://www.w3.org/2000/svg"
   xmlns:sodipodi="http://sodipodi.sourceforge.net/DTD/sodipodi-0.dtd"
   xmlns:inkscape="http://www.inkscape.org/namespaces/inkscape"
   width="270"
   height="329.672"
   viewBox="0 0 269.99999 329.67201"
   id="svg3460"
   version="1.1"
   inkscape:version="0.91 r13725"
   sodipodi:docname="sgllogo.svg"
   inkscape:export-filename="C:\Users\Public\Documents\Library\suchGreatLives\public\images\sgllogo_light.png"
   inkscape:export-xdpi="151.58"
   inkscape:export-ydpi="151.58">
  <defs
     id="defs3462" />
  <sodipodi:namedview
     id="base"
     pagecolor="#ffffff"
     bordercolor="#666666"
     borderopacity="1.0"
     inkscape:pageopacity="0.0"
     inkscape:pageshadow="2"
     inkscape:zoom="1.4"
     inkscape:cx="155.56231"
     inkscape:cy="173.89436"
     inkscape:document-units="px"
     inkscape:current-layer="layer1"
     showgrid="false"
     inkscape:window-width="1366"
     inkscape:window-height="705"
     inkscape:window-x="-8"
     inkscape:window-y="-8"
     inkscape:window-maximized="1"
     units="px" />
  <metadata
     id="metadata3465">
    <rdf:RDF>
      <cc:Work
         rdf:about="">
        <dc:format>image/svg+xml</dc:format>
        <dc:type
           rdf:resource="http://purl.org/dc/dcmitype/StillImage" />
        <dc:title />
      </cc:Work>
    </rdf:RDF>
  </metadata>
  <g
     inkscape:label="Layer 1"
     inkscape:groupmode="layer"
     id="layer1"
     transform="translate(0,-722.69011)">
    <path
       inkscape:connector-curvature="0"
       id="path4403-7-0"
       style="font-style:normal;font-variant:normal;font-weight:normal;font-stretch:normal;font-size:medium;line-height:125%;font-family:Kuusinollakahdeksan;-inkscape-font-specification:Kuusinollakahdeksan;letter-spacing:0px;word-spacing:0px;fill:#ffffff;fill-opacity:1;stroke:none;stroke-width:1px;stroke-linecap:butt;stroke-linejoin:miter;stroke-opacity:1"
       d="m 3.2888043,726.53254 0,2.76568 0,0.75427 0,1.35771 0,9.60449 0,5.68224 0,0.20112 0,0.95544 0,2.96684 0,2.91653 0,0.60343 0,2.71539 0,3.72113 0,1.0057 0,3.92224 0,0.95543 0,2.56454 0,1.15659 0,1.96114 0,4.32453 0,1.15653 0,1.76 0,0.20113 0,1.96113 0,7.99539 0,1.75997 0,1.40796 0,0.20114 0,0 0.04999,-0.20114 0.09998,0.20114 0.04999,0 0.3486788,-0.20114 0,0.20114 0.09998,-0.20114 0.04999,0 0.04999,0.20114 0,-0.20114 0.09998,0.20114 0,-0.20114 0,-2.96682 0,-0.20111 0,-0.15091 0,-0.20119 0,-11.16332 q 0,-5.0788 0.04999,-5.0788 l 0,21.11981 -0.9466816,0 0,-69.49426 0.9466816,0 0,13.52675 q -0.04999,-1.15656 -0.04999,-5.27997 l 0,-6.28566 0,-0.60343 0,0.20116 -0.1499694,-0.40227 -0.348835,0 -0.04999,0.20111 -0.04999,-0.20111 -0.2491678,0 0,0.60339 z m 69.2127377,-1.25714 0.498179,0.50284 0,3.51998 q 0,2.61483 -1.494851,3.01714 l -1.494851,-5.53141 0,-1.00571 2.491523,-0.50284 z m -0.498336,11.06274 q 1.644351,0.50289 1.993186,2.01142 -0.647836,2.51427 -1.49485,2.51427 -1.146173,0 -1.495008,-2.51427 l 0.996672,-2.01142 z m -45.14531,-9.70503 0.448502,0 q 21.227227,0.70398 23.967917,9.40331 l 1.245683,10.05709 q -1.544684,1.0057 -2.989702,1.0057 l -14.550153,0 -1.694185,-1.35772 0,-4.32452 q 0,-4.02281 -3.438204,-4.02281 -4.285374,0 -4.285374,4.02281 l 0,2.66511 q 0,4.52567 5.580891,7.03997 0.69767,0.80455 7.275076,3.67081 12.905802,6.13479 14.101651,11.06277 1.295517,1.75998 1.295517,8.04564 l 0,5.68224 q 0,7.89478 -7.275077,10.71077 -4.73372,3.36911 -17.539854,3.36911 -14.400653,0 -20.529557,-8.74965 -2.1426873,-4.87765 -2.5911895,-14.38158 1.5446845,-1.00572 2.9898581,-1.00572 l 14.5499964,0 q 2.59119,0 2.59119,2.66511 l -0.448502,0 0.448502,0.35199 -0.448502,5.68227 q 0,5.02852 4.285374,5.02852 3.836873,0 4.285219,-4.02284 l 0,-2.66509 q 0,-7.39195 -2.989702,-7.39195 L 11.012227,758.16197 Q 5.8798375,752.9323 5.8798375,744.7358 l 0,-3.31883 q 0,-9.90623 12.0089535,-13.42617 l 8.969105,-1.35769 z m 41.158937,46.91617 0.498335,0 0.498336,2.51426 0,1.50856 -0.996671,0 0,-4.02282 z m -9.965777,9.5542 3.986373,0 0.498179,0.50287 0.498336,0 q -1.046505,3.01708 -3.986373,3.01708 l -0.498336,0 -1.494851,-1.50853 0,-1.0057 0.996672,-1.00572 z m 9.965777,1.50855 0,1.00572 q 0,0.85484 -2.491523,1.50853 l -0.498179,-0.50285 q 0.498179,-2.0114 2.989702,-2.0114 z m -1.993187,13.52674 0.996671,1.00572 0,0.50283 -0.996671,0 0,-1.50855 z m -34.481707,-37.06026 0.398669,0 0,0.80457 -0.398669,-0.40226 0,-0.40231 z m -24.117417,11.06277 0.3986686,0 0.3986685,0.40226 0,0.4023 -0.3986685,0 -0.3986686,-0.4023 0,-0.40226 z m -1.594518,1.408 0.1993342,0 0,0.60339 -0.3986685,0.40232 -0.1991781,0 0,-0.60344 0.3985124,-0.40227 z m 14.948821,6.23536 0.398669,0 0.797181,0.80456 0,1.0057 -0.398669,0.40229 -0.996515,-1.60912 0.199334,-0.60343 z m 5.182223,11.06279 q 1.793852,0.25142 1.793852,0.80454 l -1.195849,0.40229 -1.196006,-0.40229 0,-0.20113 0.598003,-0.60341 z" />
    <path
       inkscape:connector-curvature="0"
       id="path4405-7-1"
       style="font-style:normal;font-variant:normal;font-weight:normal;font-stretch:normal;font-size:medium;line-height:125%;font-family:Kuusinollakahdeksan;-inkscape-font-specification:Kuusinollakahdeksan;letter-spacing:0px;word-spacing:0px;fill:#ffffff;fill-opacity:1;stroke:none;stroke-width:1px;stroke-linecap:butt;stroke-linejoin:miter;stroke-opacity:1"
       d="m 63.557275,724.2194 3.488037,0.35201 10.663447,0 3.139203,-0.35201 q 1.395183,0.35201 1.395183,1.91084 l 0,26.6512 q 0,13.67761 3.488038,14.83417 l 9.965933,0.45257 q 4.933054,-4.82739 4.933054,-13.27532 l 0,-23.18153 -0.34883,-0.35198 0.34883,-0.30172 0,-0.3017 -0.34883,-0.30174 0.34883,-0.35197 0,-0.3017 -0.34883,-3.16798 q 0.39866,-2.51427 1.39518,-2.51427 l 13.90232,0 2.09285,-0.30172 q 2.09285,0.65371 2.09285,1.25715 l 0,40.07736 -0.34883,0.3017 0,0.30174 0.34883,0 q -0.69767,5.17935 -3.48803,9.80562 -5.53106,6.23535 -10.81295,7.89476 -2.89004,1.55886 -14.699655,2.81599 -14.300985,-1.40799 -14.300985,-2.81599 -4.733721,0 -11.510461,-8.2468 -3.139203,-4.57592 -3.139203,-14.18043 l 0,-34.1437 q 0,-1.50855 1.744019,-2.56455 z" />
    <path
       inkscape:connector-curvature="0"
       id="path4407-1-1"
       style="font-style:normal;font-variant:normal;font-weight:normal;font-stretch:normal;font-size:medium;line-height:125%;font-family:Kuusinollakahdeksan;-inkscape-font-specification:Kuusinollakahdeksan;letter-spacing:0px;word-spacing:0px;fill:#ffffff;fill-opacity:1;stroke:none;stroke-width:1px;stroke-linecap:butt;stroke-linejoin:miter;stroke-opacity:1"
       d="m 129.40664,814.38094 0.54817,0.1006 0.54801,-0.1006 6.67707,0.1006 3.28886,0 0.54801,-0.1006 0.54817,0 0,0.1006 0.54817,-0.1006 0.59785,0 9.9161,0.1006 6.67707,-0.1006 4.98289,0.1006 15.447,-0.1006 1.14617,0 0.54802,0.1006 0.54817,-0.1006 22.12407,0 0,1.35769 -0.54801,0 -35.42855,0.0503 0,-0.0503 -0.54817,0.0503 -2.74053,-0.0503 -1.14602,0 -2.19252,0.0503 -2.19252,-0.0503 -2.24235,0 -2.19252,0.0503 -1.69419,-0.0503 -0.54801,0.0503 0,-0.0503 -0.54817,0.0503 -1.64435,0 0,-0.0503 -3.88671,0.0503 -19.88187,0 0,-1.40796 2.74069,0 z m 32.43868,-91.01638 q 16.34401,1.20685 20.57955,4.87767 10.31461,8.04566 10.31461,11.61591 l -4.23538,4.27426 q -3.53803,5.48108 -7.87308,5.48108 l -10.91262,-6.73823 q -2.74053,-1.20687 -7.87308,-1.20687 l -1.84368,0 q -3.33854,0 -9.06878,6.13483 -3.63753,5.58167 -3.63753,12.82274 l 0,7.34162 q 3.38837,15.23645 14.54999,15.23645 l 2.44169,0 q 6.92624,0 11.90913,-9.15188 2.98986,-2.46399 17.73919,1.20683 l -0.59785,0.65371 3.58771,2.11198 -2.98986,5.7828 q 0,4.4754 -8.47093,10.40906 -3.38837,3.87196 -11.51046,6.08453 l -9.66693,1.86054 0,-0.6537 -0.64768,0.6537 -1.79401,0 -0.59784,-0.6537 -0.59801,0 0,0.6537 q -14.00198,-2.26284 -19.38354,-6.73822 -8.32142,-6.03423 -10.31461,-12.21935 -4.83339,-9.15188 -4.83339,-20.16435 l 0,-3.67087 0.64768,-0.60339 -0.64768,-0.60344 q 0.64768,-6.08453 4.23539,-14.68332 1.44502,0 1.84368,-4.27423 3.33854,-5.58166 12.10847,-11.56561 4.63421,-3.0674 17.53985,-4.27425 z m 43.60063,55.56524 0,9.80562 q -4.23554,-1.056 -4.23554,-5.5314 l 0,-3.01707 4.23554,-1.25715 z" />
    <path
       inkscape:connector-curvature="0"
       id="path4409-9-8"
       style="font-style:normal;font-variant:normal;font-weight:normal;font-stretch:normal;font-size:medium;line-height:125%;font-family:Kuusinollakahdeksan;-inkscape-font-specification:Kuusinollakahdeksan;letter-spacing:0px;word-spacing:0px;fill:#ffffff;fill-opacity:1;stroke:none;stroke-width:1px;stroke-linecap:butt;stroke-linejoin:miter;stroke-opacity:1"
       d="m 269.45162,726.18055 0,0 0.05,-0.50287 0.49834,0 -0.4485,6.98965 q -0.05,0 -0.14997,1.60911 l -0.1,2.16231 -0.1,0.80454 0,0 0,0.25145 -0.05,0.55313 q -0.1,1.60913 -0.05,1.60913 l -2.79052,43.49675 -0.05,0 0,0.25142 0,0 0,0.30174 -0.05,0.50285 0,0 -0.1,1.35769 -0.05,1.3577 -0.05,0.25142 0,0.25143 0,0.30171 -0.05,0 0,0.25145 0,0.25143 -0.05,0.80454 -0.05,0.30173 0,0.25142 0,0.55312 0,-0.30169 0,0.30169 -1.04635,16.04104 -0.14997,0 0,0.30169 0.14997,0 -0.05,0.25143 -0.24917,0 0,0.25143 0.05,0 0,0.30171 -0.05,0 0,0.25145 0.1,0 -0.05,0.2514 -0.05,0 -0.05,0.3017 0.1,0 0,0.25142 -0.1,0 0,0.25143 0.05,0 0,0.30174 -0.1,0 0,0.25141 0,0 0,0.25142 -0.05,0 0,0.30172 0.05,0 -0.05,0.25142 -0.05,0.55314 0,0 0.05,-0.55314 0,0 -0.05,0.80458 0,-0.25144 0,0.25144 0,0.25141 -0.05,0 -0.19933,3.21828 0,0 q 0.1,-1.30747 0.1,-1.30747 l 0,-0.55311 0,0.25144 0,0 0.05,-0.50285 0,0 -0.05,0.25141 0.05,-0.25141 -0.05,0 0,0.50285 0,0 0,-0.50285 0,0 -0.14997,2.66512 -0.05,0 0,0.25142 0,0 0,0.30171 -0.05,0 0,0.25144 0,0 0,0.25142 -0.05,0 0,-0.25142 0.05,0 0,-0.25144 0,0 0,-0.55313 0,0.25142 0.05,0 0,-0.25142 0,-0.25143 -0.05,0.25143 -0.05,0 0,-0.30173 0.05,0.0503 0,-0.3017 0,0 0.1,-1.05599 0,-0.55315 0,0 -0.05,0.80455 0,0 0.14997,-1.86054 -0.05,0.25143 0,0 0,-0.25143 0.05,-0.30174 0,-0.25141 0,-0.25144 q 0.1,-1.60912 0.14997,-1.60912 l 0,-0.3017 -0.05,0 0,-0.25142 0.1,0 0,-0.25144 -0.1,0 0,-0.30171 0.1,0 0.05,-0.25144 -0.14997,0 0.05,-0.2514 0.1,0 0.05,-0.3017 -0.39867,0 0,-0.25144 0.34883,0 0.05,-0.25143 -0.34883,-0.0503 5.18222,-81.05988 0.19933,0.0503 0,0.50287 z m -61.63866,-2.71545 -4.28537,66.92974 0.99667,1.00571 9.91594,0.65371 0.39867,-0.90512 -0.24916,-1.30743 0.39866,-0.90514 -0.34883,-0.3017 0.34883,0 -0.299,-0.35201 0.05,-0.90513 0.4485,-1.55885 -0.34883,-0.30169 0.34883,0 -0.299,-0.352 1.24569,-19.81243 0.39866,-0.25144 0,-0.35198 -0.34883,0 0.34883,-0.3017 0.05,-0.30169 -0.34867,-0.35202 0.05,-0.30172 q 0.54801,-1.50857 1.14601,-1.45825 l -0.05,0.30169 0.39851,-0.30169 1.74402,0.45253 1.74402,0.1006 0.39867,-0.30172 0.34883,0.352 1.04635,0.0506 0.34884,-0.30172 0.34883,0.0506 0.34884,0.30172 0.05,-0.30172 0.299,0.35203 6.37807,0.40223 0.24917,1.60915 -0.598,9.20222 0.34883,0.35199 -0.39851,0.3017 -1.09634,17.39871 0.99667,1.00572 9.16844,0.60341 q 0.79734,0.0503 1.14617,-1.45827 l -0.299,-0.35197 0.34884,-0.30177 -0.299,-0.30169 0.34883,0 -0.34883,-0.352 0.4485,-1.50855 -0.05,-4.67655 0.4485,-1.55884 -0.34883,-0.35196 0.39866,-0.25146 -0.34883,-0.35198 0.34883,0.0503 -0.299,-0.35199 0.05,-1.25715 0.39867,-0.30174 -0.34883,-0.30169 0,-0.30169 0.39867,-0.30171 0,-0.30172 -0.29901,-0.35198 0.34884,0 -0.34884,-0.30173 0.1,-1.55886 0.34884,-0.30169 0.05,-0.3017 -0.34884,-0.35202 0.34884,0.0506 -0.299,-0.35199 0,-0.3017 0.598,-4.02285 0.34883,-10.61016 0.64768,-4.97828 -0.29884,-0.95542 0.74735,-5.88337 0.299,-4.67652 0.34883,-10.91189 0.49818,-2.464 -0.19933,-2.51428 0.39867,-0.30169 -0.34884,-0.30172 0.39867,-0.30174 -0.34883,0 0.34883,-0.30167 0.05,-0.30173 -0.34868,-0.35198 0,-0.30172 0.34868,0 q -0.24901,-1.25713 -2.04286,-1.35769 l -7.02607,-0.45261 -0.39851,0.25145 -0.34884,0 0.05,-0.30174 q -1.44501,0.20116 -1.54468,1.76 l -1.69419,25.99754 -0.4485,1.5085 -12.70631,-0.80452 -0.34883,0.30167 -0.39867,-0.0503 -0.89701,-1.91083 0.34884,0 -0.34884,-0.35201 0.94684,-14.43189 0.34884,-0.30171 -0.34884,-0.352 0.1,-1.55884 0.39851,-0.30171 -0.34883,-0.3017 0.299,-4.67654 0.39867,-0.30168 0,-0.30176 -0.34884,-0.35198 0.39867,0.0503 -0.34883,-0.35199 0,-0.30175 0.4485,-0.90509 -0.34884,-0.35198 0.34884,-0.25146 -0.34884,-0.0506 0.39867,-0.3017 0,-0.30172 -0.34883,-0.35199 0.05,-0.30169 0.34883,0.0506 q -0.4485,-1.30742 -0.99651,-1.30742 l -7.42458,-0.50285 q -2.59119,-0.15106 -2.89003,0.75427 z m -4.13587,73.91939 0,0.45258 2.19252,0.15075 0,-0.4526 -2.19252,-0.15075 z m 2.59119,0.15075 -0.05,0.45258 2.54136,0.1509 0.05,-0.45256 -2.5412,-0.15091 z m 3.5877,0.25143 0,0.45256 7.97259,0.50285 0.05,-0.45256 -8.02242,-0.50285 z m 27.65514,1.81029 -0.05,0.45254 2.5412,0.15107 0.05,-0.45255 -2.5412,-0.15091 z m -13.50381,0 -0.05,0.45254 1.84369,0.15107 0,-0.45255 -1.79385,-0.15091 z m 5.38156,1.25711 -0.05,0.45257 1.49485,0.1006 0,-0.45258 -1.44502,-0.1006 z m 9.11876,0.15091 12.00896,0.80459 -0.05,0.45256 -12.0088,-0.80457 0.05,-0.45258 z m -25.51244,-0.75425 0,0.45255 -12.70647,-0.85483 0,-0.45256 12.70647,0.85484 z m 1.84368,0.1006 2.5412,0.20115 -0.05,0.45255 -2.5412,-0.20115 0.05,-0.45255 z m 26.50912,1.75999 3.2887,0.20111 -0.05,0.45258 -3.23887,-0.20113 0,-0.45256 z m 4.73372,0.3017 4.33521,0.30172 0,0.45255 -4.38504,-0.30172 0.05,-0.45255 z m -28.0538,-0.95543 0,0.45257 -17.78902,-1.15656 0,-0.45255 17.78902,1.15654 z m 24.01759,1.60914 8.32158,0.50285 0,0.45257 -8.37141,-0.50289 0.05,-0.45253 z m -36.07622,-1.45828 0,0.45258 -5.83006,-0.40229 0.05,-0.45255 5.78022,0.40226 z m 0.39851,0 2.89019,0.20115 -0.05,0.45256 -2.89019,-0.20113 0.05,-0.45258 z m 34.48186,2.26284 2.19252,0.15106 0,0.45256 -2.19252,-0.15075 0,-0.45259 z m 2.93987,0.20114 4.73388,0.30172 -0.05,0.45255 -4.73372,-0.30172 0.05,-0.45255 z m -19.0347,0.55316 -0.39867,0.45256 0,0.45256 1.09634,-0.40229 0.05,-0.45255 -0.74751,-0.0503 z m 1.14601,5.07877 -0.05,0.90516 0.34884,0.45255 -0.05,0.45259 -0.39867,0.40226 -0.34884,0 -0.34883,-0.45253 0.05,-0.90516 0.39867,-0.45253 0.05,-0.45261 -0.34868,-0.45256 -0.34884,-0.0506 -0.14997,1.81026 0.64784,1.40799 q 1.09618,0.0505 1.29552,-2.61484 l 0.69767,0.0503 0.05,-0.90514 -1.49485,0.80458 z m 9.1686,-0.75425 0.34883,0 -0.1,1.81027 -0.34883,-0.0506 0.1,-1.75998 z m -4.08589,1.05599 -0.1,1.81028 0.34884,0.0503 0.1,-1.8103 -0.34884,-0.0503 z m 1.84369,0.1509 0.34868,0 -1.19585,1.30741 0.05,-0.45257 0.79734,-0.85484 z m -9.86627,0.2514 0.34884,0 -0.1,1.81026 -0.39867,0 0.14997,-1.81026 z m 10.01561,2.46397 -0.05,0.90513 -1.09618,-0.10061 0.05,-0.45255 1.09618,-0.35202 z m -8.07225,0.80457 1.09618,0.1006 0.34883,0.45258 -0.05,0.9051 -0.7475,-0.0503 -0.64768,-0.95543 0,-0.45257 z m -1.49485,0.80455 1.79385,0.15091 0,0.45256 -1.84369,-0.1509 0.05,-0.45258 z" />
    <path
       inkscape:connector-curvature="0"
       id="path4411-3-0"
       style="font-style:normal;font-variant:normal;font-weight:normal;font-stretch:normal;font-size:medium;line-height:125%;font-family:Kuusinollakahdeksan;-inkscape-font-specification:Kuusinollakahdeksan;letter-spacing:0px;word-spacing:0px;fill:#ffffff;fill-opacity:1;stroke:none;stroke-width:1px;stroke-linecap:butt;stroke-linejoin:miter;stroke-opacity:1"
       d="m 11.212498,799.70656 0.436161,0.16517 0.436317,-0.16517 5.181286,0.16517 2.617746,0 0.436317,-0.16517 0.436317,0 0,0.16517 0.436318,-0.16517 0.436317,0 7.799032,0.16517 5.181285,-0.16517 3.926698,0.16517 12.107527,-0.16517 0.872634,0 0.436317,0.16517 0.436317,-0.16517 17.343333,0 0,3.02707 -0.436317,0 -27.760111,0.16517 0,-0.16517 -0.436317,0.16517 -2.127066,-0.16517 -0.872634,0 -1.745269,0.16517 -1.745112,-0.16517 -1.745425,0 -1.690592,0.16517 -1.308951,-0.16517 -0.436317,0.16517 0,-0.16517 -0.436317,0.16517 -1.308952,0 0,-0.16517 -3.054064,0.16517 -15.5435433,0 0,-3.19223 2.1270653,0 z m 27.814631,23.06088 q 16.579739,1.21082 20.88839,4.9534 10.416778,8.14558 10.416778,11.77811 l -4.308495,4.34798 q -3.545057,5.55882 -7.962748,5.55882 l -11.071333,-6.82467 q -2.781463,-1.21084 -7.962592,-1.21084 l -1.854309,0 q -3.43586,0 -9.217023,6.16424 -3.708618,5.72392 -3.708618,13.04396 l 0,7.4301 q 3.435861,15.52069 14.77995,15.52069 l 2.454186,0 q 7.035594,0 9.817058,-4.348 0,-5.61387 -6.16296,-5.61387 l 0,0.66048 -0.599878,-0.66048 -6.762837,0 q -1.363472,0 -2.454186,-5.55882 0,-10.56729 3.708617,-10.56729 l 0.599878,0.66047 16.579738,-0.66047 1.854309,0 6.762837,0.66047 1.799789,-0.66047 q 4.963048,0 4.963048,6.21928 l 0,11.77814 -0.654553,0.60541 0.654553,0.66045 0,7.43013 q 0,4.51312 -8.617146,10.51224 -3.43586,3.96271 -11.671209,6.21928 l -9.817058,1.81624 0,-0.60543 -0.654397,0.60543 -1.799789,0 -0.654554,-0.60543 -0.599877,0 0,0.60543 Q 23.592626,900.48093 18.138896,895.91277 9.6853102,889.74851 7.7219612,883.52923 2.7589125,874.1728 2.7589125,863.05512 l 0,-3.74256 0.6543976,-0.60543 -0.6543976,-0.60541 q 0.6543976,-6.21924 4.308495,-14.91521 1.4181478,0 1.8543087,-4.29297 3.3814968,-5.72397 12.2712438,-11.7781 4.744968,-3.13718 17.834169,-4.348 z m 44.230809,56.41379 0,9.90682 q -4.308495,-1.10074 -4.308495,-5.55882 l 0,-3.13714 4.308495,-1.21086 z" />
    <path
       inkscape:connector-curvature="0"
       id="path4413-6-8"
       style="font-style:normal;font-variant:normal;font-weight:normal;font-stretch:normal;font-size:medium;line-height:125%;font-family:Kuusinollakahdeksan;-inkscape-font-specification:Kuusinollakahdeksan;letter-spacing:0px;word-spacing:0px;fill:#ffffff;fill-opacity:1;stroke:none;stroke-width:1px;stroke-linecap:butt;stroke-linejoin:miter;stroke-opacity:1"
       d="m 81.451745,817.31868 q 0,0.93565 -1.145235,1.10076 l 0,-2.31161 q 1.145235,0.16517 1.145235,1.21085 z m 6.43556,-1.04571 q 1.036195,0 1.636228,1.98136 l 1.472512,2.91695 0,0.77057 -0.436317,0.4403 -0.599878,-0.16517 -1.03635,0.16517 q -1.254275,-0.88059 -1.745113,-0.88059 l -1.145391,0 q -0.708917,0.88059 -1.363471,0.88059 l -0.109353,0 q -1.090871,0 -1.199911,-0.4403 l 0,-0.77057 q 0.763594,-0.66039 0.872634,-1.81622 0.327277,-0.0551 1.472512,-2.91697 l 0.163716,-0.16517 2.01787,0 z m 7.908072,1.37594 0.327277,0 q 0.709074,0.38523 0.709074,1.21083 0,0.60539 -0.709074,1.10074 -1.363471,0 -1.363471,-1.26586 0,-1.04571 1.036194,-1.04571 z m -9.326064,2.14647 0.109353,0.16517 0.436317,0 0.436317,-0.49532 -0.436317,-0.44037 -0.109353,0 q -0.327276,0 -0.436317,0.77058 z m -5.999243,0.27518 q 0.872634,0.16534 0.872634,0.49533 l 0,1.37596 q 0,0.33022 -1.036194,0.4403 l 0,-2.31159 0.164029,0 z m 2.290626,2.91701 6.49008,0.4403 4.799489,-0.4403 q 16.525065,0.27519 16.525065,2.64183 2.50886,0 5.67212,7.4301 l 1.30895,3.52245 0,17.11677 q -2.39967,7.48511 -4.36317,7.48511 l -0.43632,2.14651 0,0.88057 q 4.79949,4.07281 4.79949,7.92548 l -0.43632,3.96274 0.43632,5.22857 -0.43632,1.76123 q 0,10.51222 2.18159,16.23619 l 0,0.44028 -3.05422,0.88065 -8.28987,0 q -4.30849,0 -4.30849,-6.60456 -1.74527,0 -1.74527,-15.79586 l 0.43616,-3.90771 q 0,-5.28367 -3.490383,-5.28367 -1.745269,0.71553 -1.745269,3.08214 l 0,8.31072 0.436318,0.44029 -0.436318,0.4403 0,18.87799 -2.181429,0.44036 -12.162203,0 -1.308951,-1.32093 0,-74.57635 1.308951,-1.7612 z m 34.577464,18.49274 0,11.55793 q -0.87263,0 -1.58155,-5.39368 l 0,-0.49536 q 0.81812,-5.66889 1.58155,-5.66889 z m -20.233832,-4.89836 0,11.83314 0.436318,4.84331 -0.436318,3.52241 0,0.44031 0.872635,0.8806 0.872634,0 q 3.490383,0 3.490383,-4.84332 l -0.43616,-7.87039 0,-1.32093 0.43616,-0.44029 -0.43616,-0.44028 0,-4.40306 q 0,-2.7519 -3.054223,-3.52243 l -1.745269,1.32093 z m 20.233832,32.30718 0,10.73242 q -1.14523,0 -1.8543,-6.71463 l 0,-2.917 q 0,-0.60541 1.8543,-1.10079 z m -19.742994,34.39869 1.363471,0.27523 2.945183,-0.27523 0.49083,0 0,0.27523 3.21778,-0.27523 11.72573,0 0,2.69687 -37.03165,0 0,-2.42164 14.398152,0 2.890504,-0.27523 z" />
    <path
       inkscape:connector-curvature="0"
       id="path4415-4-5"
       style="font-style:normal;font-variant:normal;font-weight:normal;font-stretch:normal;font-size:medium;line-height:125%;font-family:Kuusinollakahdeksan;-inkscape-font-specification:Kuusinollakahdeksan;letter-spacing:0px;word-spacing:0px;fill:#ffffff;fill-opacity:1;stroke:none;stroke-width:1px;stroke-linecap:butt;stroke-linejoin:miter;stroke-opacity:1"
       d="m 123.0584,822.60234 -0.10935,0.44028 -8.18083,0 -0.0547,-0.10998 q -0.27275,0.16517 -0.27275,0.33023 l 0,30.16076 q 0,0.6054 -0.32712,0.6054 l -0.21824,0 0,-31.92197 9.1625,0 0,0.49535 z m 18.43405,3.41233 2.39967,0.27518 -0.0547,0.4403 -2.39967,-0.22014 0.0547,-0.49534 z m 2.8905,0.27518 1.90883,0.22016 -0.0547,0.49536 -1.90882,-0.22019 0.0547,-0.49533 z m 2.34515,0.27519 3.32682,0.38525 0,0.44029 -3.38134,-0.3302 0.0547,-0.49534 z m 3.81781,0.44033 1.90883,0.16517 -0.0547,0.49534 -1.90882,-0.22016 0.0547,-0.4403 z m 3.32682,0.33017 3.38134,0.3853 -0.0547,0.49536 -3.38134,-0.38528 0.0547,-0.49538 z m -22.03362,-1.37592 34.35939,3.68754 0.43631,0.55039 0.43616,0.055 0.54552,-0.44029 0.43631,0.55039 0.54536,-0.4403 -0.10935,0.93567 q 1.90883,0.22014 1.69075,2.14643 l 0.92715,0.10998 -0.0547,0.49534 -0.92716,-0.10998 -0.0547,0.49531 0.98167,0.10997 -0.54551,0.4403 0.43647,0.49537 -0.65455,5.834 -0.92716,-0.11029 -0.0547,0.49532 0.92715,0.10982 -0.0547,0.44035 -0.92715,-0.10998 0.43632,0.55039 q -0.6544,1.54107 -2.12691,1.76117 l -0.43632,-0.55036 -0.10935,0.93562 -0.43632,-0.0554 -0.43632,-0.49532 -2.45418,0.22012 -1.418,-0.16517 -0.43631,-0.5504 -0.54536,0.4403 -9.05346,-0.99064 -0.49084,0.44028 -4.19945,-1.43098 -2.01803,0.77051 -0.43632,-0.55039 -0.92715,-0.0554 -0.0547,0.44034 0.92716,0.10982 -0.0547,0.49534 -0.92715,-0.10998 -0.43632,3.85265 0.49084,0.055 0.21808,-1.92631 0.49083,0.0555 -0.49083,4.34799 -0.49084,-0.0552 0.21824,-1.92632 -0.49084,-0.055 -0.16387,1.92634 1.8543,0.71548 -0.10935,0.99069 -0.49099,-0.0548 -0.43616,-0.5504 -0.491,-0.0555 0,0.49534 0.3818,0.49535 0.98168,0.10982 0.54551,-0.44028 0.3818,0.55037 2.39966,0.27516 0.10935,-0.99066 0.49084,0.0552 -0.10935,0.99064 1.90883,0.22016 0.49084,-0.4403 0.49083,0.0555 -0.10935,0.93563 3.43586,-0.60539 1.85431,0.71546 2.45434,-0.22015 -0.10935,0.93565 0.49084,0.0555 0.10935,-0.93563 0.92731,0.055 4.19945,1.43098 -0.54551,0.44031 -0.0547,0.49532 q 1.47267,0.16517 1.30896,1.59612 l 0.43631,0.55038 0.43632,0.0548 -0.54536,5.33869 -0.54535,0.38528 0.43631,0.5504 -0.27275,2.91698 -0.49084,-0.055 0.16356,-1.43097 -0.49084,-0.0555 q -0.27276,2.42165 -1.19991,2.31156 l -1.47251,0.33023 -0.43632,-0.55037 -0.10935,0.99066 -0.43632,-0.55038 -0.54536,0.44034 -0.92715,-0.10998 -0.43632,-0.55039 -0.49083,-0.055 -0.49084,0.44029 -0.43632,-0.55034 -0.54536,0.4403 0.0547,-0.49537 -0.54536,0.44028 -0.92715,-0.10997 -0.43632,-0.49532 -0.49084,-0.055 -0.49083,0.44028 0.0547,-0.49533 -0.54535,0.44028 -0.49084,-0.0548 -4.19946,-0.9907 -0.54535,0.44034 0.0547,-0.44034 -0.54551,0.38528 -0.49068,-0.055 -0.3818,-0.49534 -0.49084,-0.055 -0.0547,0.49532 -0.43632,-0.55034 -0.49084,-0.0555 q -2.83598,-0.33026 -2.99954,1.15577 l -0.87263,-1.10075 0.54535,-0.44031 -0.49083,-0.055 -0.49084,0.44032 -0.43632,3.90768 0.98168,0.0555 -0.0547,0.49538 -0.98167,-0.10997 -0.32728,3.41231 -0.98168,-0.10982 -0.0547,0.49534 1.90883,0.22019 -0.0547,0.44028 -1.41799,-0.10997 q 0.2726,3.41235 1.09071,3.52243 l 1.03635,-0.88061 -0.0547,0.49533 -0.54536,0.44032 -0.0547,0.49532 0.49084,0.055 0.54536,-0.44029 0.49084,0.0548 0.38179,0.49537 0.54536,-0.38528 -0.10935,0.93562 0.49099,0.055 0.10935,-0.99067 0.49084,0.0555 -0.10935,0.9907 2.45418,-0.71549 -0.0547,0.4953 0.54536,-0.44025 4.19945,1.43097 0.0547,-0.49534 0.43631,0.55036 2.39967,-0.22013 1.90883,0.22013 2.34514,0.7155 0.54536,-0.44034 -0.0547,0.49537 0.49083,-0.4403 0.49084,0.055 0.43632,0.5504 0.49083,0.055 0.0547,-0.49534 0.38164,0.55035 0.98183,0.0555 0.5452,-0.38525 0.43648,0.0548 -0.0547,0.93563 0.49084,-0.44028 0.49083,0.0548 -0.32727,2.91701 0.98167,0.10983 -0.54536,0.44034 0.43632,0.49532 -0.70907,6.76967 -0.54536,0.44028 -0.0547,0.49537 0.43632,0.55037 q -0.98167,-0.10982 -1.09071,1.32089 l -1.52719,0.33023 -0.3818,-0.49532 -0.10935,0.93565 -2.34515,-0.71553 -0.0547,0.49536 -0.43632,-0.55039 -2.83614,-0.3302 -0.54536,0.44029 -0.43631,-0.55039 -0.92716,-0.10982 -0.54536,0.44028 -0.43631,-0.49533 -1.41799,-0.16517 -0.54536,0.44036 -0.43632,-0.0552 0.10935,-0.99067 -0.49083,-0.055 -0.10936,0.99068 -0.49099,-0.0548 0.10935,-0.99064 -3.43601,0.60538 -2.34515,-0.71548 -3.81766,-0.44033 -0.49084,0.44033 -0.49083,-0.055 0.0547,-0.4954 -0.54535,0.44033 -0.49084,-0.055 -0.3818,-0.49533 -0.49083,-0.0552 -0.0547,0.49539 -0.43632,-0.55041 -5.2358,-0.55038 -0.54536,0.38528 -1.36347,-0.60543 -4.36317,0 -0.38164,-0.55035 -0.54552,0.44028 -0.43632,-0.49535 -0.49068,0.38526 -1.5817,-3.08212 0.21808,-2.42164 0.54551,-0.44032 -0.43632,-0.55037 0.0547,-0.44028 0.70892,-2.36668 -0.38164,-0.55034 1.03619,-0.88062 -0.49084,-0.055 -0.49083,0.44028 1.69059,-16.45631 0.54551,-0.44028 0.0547,-0.44032 -0.49084,-0.0555 0.54536,-0.4403 0.0547,-0.49537 -0.32727,-1.48601 0.43631,0.055 -0.38164,-0.5504 2.23595,-21.29963 0.54536,-0.44032 -0.43616,-0.49532 0.54536,-5.33868 0.98167,0.10983 0.0547,-0.49533 -0.98168,-0.10997 0.2726,-2.42163 0.92716,0.10982 -0.81796,-1.04576 q 1.96335,-3.24719 2.72679,-3.13715 l 1.36362,0.60545 -0.43631,-0.49541 0.0547,-0.49531 z m 5.23565,1.04575 -0.0547,0.49529 1.90883,0.16517 0.0547,-0.4403 -1.90883,-0.22016 z m 4.25413,0.44027 -0.0547,0.49534 1.90899,0.22014 0.0547,-0.4953 -1.90898,-0.22018 z m 9.54414,1.04571 -0.0547,0.49535 1.90883,0.16517 0.0547,-0.44028 -1.90883,-0.22018 z m 11.94397,1.26588 -0.0547,0.49534 3.32682,0.38525 0.0547,-0.49529 -3.32682,-0.3853 z m 4.03589,30.32586 0.43632,0 -0.16403,1.98139 -0.49084,-0.0552 0.21824,-1.92632 z m -43.73997,7.98049 0.43632,0.055 -0.32728,3.35733 -0.49083,-0.0552 0.38179,-3.35733 z" />
    <path
       inkscape:connector-curvature="0"
       id="path4417-9-2"
       style="font-style:normal;font-variant:normal;font-weight:normal;font-stretch:normal;font-size:medium;line-height:125%;font-family:Kuusinollakahdeksan;-inkscape-font-specification:Kuusinollakahdeksan;letter-spacing:0px;word-spacing:0px;fill:#ffffff;fill-opacity:1;stroke:none;stroke-width:1px;stroke-linecap:butt;stroke-linejoin:miter;stroke-opacity:1"
       d="m 188.00748,839.55398 9.98062,0.55037 q 0.76343,0.055 0.98167,4.51313 0.70892,1.21081 1.36347,4.56816 0.70892,0.0555 1.14524,5.39369 0.65439,0.0548 1.19991,4.5131 0.92715,0.0551 0.76344,3.63246 0.92731,1.59611 1.9635,6.93479 0.3818,0.055 0.98168,4.51312 0.65439,0.0555 1.36347,5.44875 0.65439,0.0555 0.70891,3.63249 1.36348,0.0555 1.36348,5.72392 l -1.14524,0.22018 -5.83568,-0.38527 q -2.07239,-0.10982 -3.10859,-3.13715 l 0.27261,-0.27521 0.10935,-2.64181 -2.18159,-3.68756 -15.3253,-0.9356 q -2.23611,3.0821 -2.39983,5.83401 -0.43616,-0.055 -1.03619,2.31157 -1.0362,1.10075 -2.39967,1.04571 l -3.49053,-0.22012 q -1.63608,-0.10998 -1.74512,-0.99071 0.10936,-2.69685 1.85416,-5.83401 0.0547,-1.21085 1.8543,-4.34799 0.16372,-2.91701 1.63623,-4.67821 l 1.63623,-5.22862 q 0.10935,-1.43098 1.90883,-4.95341 0.1634,-3.19219 1.58155,-4.348 0.10935,-2.09141 1.63623,-4.07278 0.10935,-2.97204 1.96335,-6.7146 0.0547,-1.21086 1.58155,-3.79761 0.10935,-2.64182 0.81812,-2.58679 z m -2.01787,29.88557 -0.0547,0.60542 0.65456,0.93559 3.76313,0.22019 0.92716,-0.27521 0.92715,0.33025 3.92686,0.27519 0.76344,-0.8806 0.0547,-0.8806 q 0.0547,-1.21086 -1.36347,-5.99912 0.10935,-1.70618 -0.98183,-3.0271 0.16387,-3.68754 -1.36332,-6.32933 -0.10935,-2.36664 -0.81811,-2.42168 l -0.43632,-0.0551 q -2.56338,4.01777 -2.72694,7.87043 -1.14539,-0.0555 -1.63623,4.95341 -1.25427,-0.055 -1.63607,4.67822 z m -27.05119,51.02012 -0.10936,1.65112 -1.58155,-0.16534 0.0547,-0.82558 1.63607,-0.66048 z m -11.99849,1.48601 1.63607,0.16534 0.49084,0.82559 -0.0547,1.70618 -1.14523,-0.10998 -0.92716,-1.76119 0,-0.82558 z m -2.23611,1.48603 2.67227,0.27519 0,0.82557 -2.78146,-0.27523 0.10935,-0.82553 z m 52.90248,-6.38443 -0.0547,-0.27516 -1.58171,-0.0555 0.0547,0.27522 1.58171,0.055 z m -1.90883,-0.0548 0,-0.27517 -1.79979,0 0,0.22015 1.79979,0.055 z m -2.56338,-0.0551 -0.0547,-0.27519 -5.78116,-0.16517 0,0.27521 5.83568,0.16517 z m -11.34409,-0.10998 0,-0.22012 -1.85431,-0.055 0,0.27516 1.85431,0 z m 9.76254,-0.22012 0,-0.27523 -1.36348,-0.0548 0.0547,0.27522 1.3088,0.055 z m -3.98138,-0.6054 0,-0.27524 -1.09071,-0.0548 0.0547,0.27521 1.0362,0.055 z m -6.59912,0.0555 -8.67167,-0.27518 0,-0.22014 8.67167,0.22014 0,0.27518 z m 9.70786,-0.49532 -0.0547,-0.27518 9.21702,0.27518 0.0547,0.27516 -9.21703,-0.27516 z m 7.41724,0.44029 -1.85431,-0.055 0,-0.2752 1.85431,0.0551 0,0.27518 z m -19.25216,-0.55039 -2.39967,-0.055 0,-0.27521 2.34515,0.055 0.0547,0.27521 z m -3.43587,-0.055 -3.10874,-0.10998 -0.0547,-0.27518 3.1631,0.10982 0,0.27523 z m 11.56217,-0.44032 -0.0547,-0.27518 12.9258,0.38525 0,0.22015 -12.87113,-0.33022 z m -8.28986,3.08212 -5.99925,-0.16517 -0.0547,-0.27517 6.05376,0.16517 0,0.2752 z m 16.96153,-3.41235 -0.0547,-0.22017 4.25414,0.10998 0,0.27516 -4.19946,-0.16517 z m -0.27276,0.0552 -2.12706,-0.10998 0,-0.22017 2.12706,0.0548 0,0.27521 z m -15.87082,2.86193 -1.63607,-0.055 0,-0.27518 1.58155,0.0555 0.0547,0.27518 z m -2.18143,-0.055 -3.43601,-0.10998 0,-0.27519 3.43601,0.10998 0,0.27521 z m 13.68924,-0.66049 0.2726,-0.27518 -0.0547,-0.27518 -0.76359,0.27518 0,0.27518 0.54536,0 z m -12.43496,-0.93565 -0.0547,-0.55034 -0.27275,-0.27518 0,-0.22016 0.27275,-0.27521 0.21824,0 0.32712,0.27521 0,0.49534 -0.21808,0.27519 0,0.27515 0.2726,0.27525 0.21824,0 0,-1.04577 -0.54536,-0.82552 q -0.81812,0 -0.76359,1.54103 l -0.49084,0 0,0.49539 1.03619,-0.44038 z m -6.5446,0.55042 -0.21808,0 -0.10936,-0.99069 0.27261,0 0.0547,0.99069 z m 8.61714,-1.0457 -0.27275,0 -0.0547,-1.04575 0.2726,0 0.0547,1.04575 z m -1.63622,-1.81627 -0.81796,-0.0548 -0.27276,-0.27522 -0.0547,-0.49531 0.54536,0 0.54536,0.55033 0.0547,0.27524 z m 0.98167,-0.49536 -1.30879,-0.0548 0,-0.27516 1.30879,0.055 0,0.27516 z m 16.14358,1.65114 -0.0547,-0.27521 -1.58155,0 0.0547,0.22021 1.58155,0.055 z m -1.90899,-0.0551 0,-0.22017 -1.79979,-0.055 -0.0547,0.27521 1.85431,0 z m -2.56322,-0.055 -0.0547,-0.27516 -5.78116,-0.16517 0,0.27515 5.83568,0.16534 z m 0.76343,-0.22014 0,-0.22016 -2.72678,-0.0555 -0.0547,0.27516 2.78146,0 z m -2.67226,1.04569 0.0547,-0.27516 -1.63622,0 0.0547,0.22014 1.52719,0.0548 z m -9.76254,0.10998 -12.92564,-0.10998 0,-0.27516 12.92564,0.16532 0,0.22019 z m -2.07239,-0.3302 0,-0.27519 9.21702,0.27519 0,0.22014 -9.21702,-0.22014 z m -1.09071,-0.22016 -3.54506,0 0.0547,-0.27519 3.49053,0 0,0.27519 z m -5.07209,-0.0548 -4.69045,-0.0552 0,-0.27521 4.69045,0.10998 0,0.22018 z m 2.45418,-0.38528 0,-0.22014 12.87112,0.33019 0.0547,0.27523 -12.92564,-0.38528 z m 1.79979,-0.0548 -8.94442,-0.10998 0,-0.27521 8.99894,0.10998 -0.0547,0.27517 z m 6.87188,-0.22015 0,-0.27524 4.19945,0.16533 0,0.22014 -4.19945,-0.10998 z m -0.27276,0 -2.07239,-0.0548 0,-0.27522 2.07239,0.055 0,0.27525 z m -5.34484,-0.27524 -2.39967,-0.0551 0,-0.27518 2.34515,0.055 0.0547,0.27519 z m -3.16311,-0.0551 -5.12661,-0.0548 0.0547,-0.27525 5.07209,0.055 0,0.27518 z m 11.39846,0.44028 0,-0.27518 -0.38164,-0.16516 0,-0.10998 0.38164,-0.10982 0.38179,0 0.3818,0.10982 0.0547,0.27521 -0.38164,0.10982 -0.0547,0.16517 0.43632,0.11029 0.32727,0 0.0547,-0.49532 -0.76359,-0.44029 q -1.19976,0 -1.19976,0.77049 l -0.70907,0 0,0.27525 1.47266,-0.2202 z m -9.54415,0.33023 -0.38179,0 0,-0.55037 0.38179,0 0,0.55037 z m 4.19946,-0.38526 0,-0.49532 -0.3818,-0.0552 0,0.55037 0.3818,0 z m -1.90883,0 -0.3818,0 1.14524,-0.38525 0,0.10982 -0.76344,0.27518 z m 10.30774,-0.22015 -0.3818,0 0,-0.49536 0.43632,0 -0.0547,0.49536 z m -10.68954,-0.55035 0,-0.2752 1.14524,0 0,0.10998 -1.14524,0.16517 z m 8.39891,-0.3853 -1.14523,0 -0.3818,-0.10998 0,-0.27514 0.76344,0 0.76359,0.27514 0,0.10998 z m 1.52703,-0.22014 -1.90883,-0.055 0,-0.10982 1.96335,0 -0.0547,0.16517 z m 9.81706,7.92547 -0.0547,-0.27521 -1.58171,-0.055 0.0547,0.27517 1.58171,0.0552 z m -1.90883,-0.055 0,-0.27518 -1.79979,0 0,0.22014 1.79979,0.0555 z m -2.56338,-0.0555 -0.0547,-0.27524 -5.78116,-0.16517 0,0.27519 5.83568,0.16517 z m -1.58155,-0.33025 0,-0.27519 -1.36348,-0.055 0.0547,0.27521 1.3088,0.055 z m -3.98138,-0.6054 0,-0.2752 -1.09071,-0.0551 0.0547,0.27517 1.0362,0.0555 z m 3.10874,-0.44034 -0.0547,-0.27516 9.21702,0.27516 0.0547,0.27521 -9.21703,-0.27521 z m 7.41724,0.44034 -1.85431,-0.0555 0,-0.27518 1.85431,0.055 0,0.27524 z m -22.68803,-0.60544 -3.10874,-0.10998 -0.0547,-0.27518 3.1631,0.10998 0,0.27518 z m 11.56217,-0.4403 -0.0547,-0.27517 12.9258,0.38525 0,0.22016 -12.87113,-0.33024 z m 8.67167,-0.33025 -0.0547,-0.22011 4.25414,0.10998 0,0.27514 -4.19946,-0.16517 z m -0.27276,0.0555 -2.12706,-0.10998 0,-0.22016 2.12706,0.055 0,0.27521 z m -4.36301,2.14645 0.2726,-0.27518 -0.0547,-0.27521 -0.76359,0.27521 0,0.27518 0.54536,0 z m -12.43496,-0.93564 -0.0547,-0.5504 -0.27275,-0.27515 0,-0.22017 0.27275,-0.27519 0.21824,0 0.32712,0.27519 0,0.49532 -0.21808,0.27524 0,0.27516 0.2726,0.27521 0.21824,0 0,-1.04575 -0.54536,-0.82555 q -0.81812,0 -0.76359,1.54104 l -0.49084,0 0,0.49537 1.03619,-0.44032 z m 2.07254,-0.49533 -0.27275,0 -0.0547,-1.04573 0.2726,0 0.0547,1.04573 z m -1.63622,-1.81624 -0.81796,-0.055 -0.27276,-0.27516 -0.0547,-0.49539 0.54536,0 0.54536,0.55041 0.0547,0.27516 z m 0.98167,-0.49535 -1.30879,-0.0555 0,-0.27519 1.30879,0.0555 0,0.27518 z m 16.14358,1.65108 -0.0547,-0.27515 -1.58155,0 0.0547,0.22018 1.58155,0.055 z m -1.90899,-0.0548 0,-0.22016 -1.79979,-0.055 -0.0547,0.2752 1.85431,0 z m -2.56322,-0.0555 -0.0547,-0.27516 -5.78116,-0.16533 0,0.27518 5.83568,0.16517 z m 0.76343,-0.22017 0,-0.22013 -2.72678,-0.055 -0.0547,0.27515 2.78146,0 z m -2.67226,1.04578 0.0547,-0.27524 -1.63622,0 0.0547,0.22016 1.52719,0.0548 z m -11.83493,-0.2202 0,-0.27518 9.21702,0.27518 0,0.2202 -9.21702,-0.2202 z m -1.09071,-0.22014 -3.54506,0 0.0547,-0.27518 3.49053,0 0,0.27518 z m -5.07209,-0.055 -4.69045,-0.0555 0,-0.27521 4.69045,0.10998 0,0.22013 z m 2.45418,-0.38528 0,-0.22013 12.87112,0.33025 0.0547,0.27516 -12.92564,-0.38528 z m 1.79979,-0.055 -8.94442,-0.10998 0,-0.27521 8.99894,0.10982 -0.0547,0.27517 z m 6.87188,-0.22016 0,-0.27518 4.19945,0.16517 0,0.22013 -4.19945,-0.10982 z m -0.27276,0 -2.07239,-0.0548 0,-0.27516 2.07239,0.055 0,0.27523 z m -5.34484,-0.27518 -2.39967,-0.055 0,-0.27525 2.34515,0.055 0.0547,0.27517 z m -3.16311,-0.055 -5.12661,-0.0555 0.0547,-0.27517 5.07209,0.055 0,0.2752 z m 11.39846,0.44029 0,-0.2752 -0.38164,-0.16516 0,-0.10998 0.38164,-0.10982 0.38179,0 0.3818,0.10982 0.0547,0.27518 -0.38164,0.10982 -0.0547,0.16517 0.43632,0.10997 0.32727,0 0.0547,-0.49535 -0.76359,-0.4403 q -1.19976,0 -1.19976,0.77053 l -0.70907,0 0,0.27518 1.47266,-0.22014 z m -9.54415,0.33021 -0.38179,0 0,-0.55039 0.38179,0 0,0.55039 z m 4.19946,-0.38526 0,-0.49534 -0.3818,-0.055 0,0.55041 0.3818,0 z m -1.90883,0 -0.3818,0 1.14524,-0.38524 0,0.10982 -0.76344,0.27521 z m 10.30774,-0.22015 -0.3818,0 0,-0.49533 0.43632,0 -0.0547,0.49533 z m -10.68954,-0.5504 0,-0.27516 1.14524,0 0,0.10998 -1.14524,0.16517 z m 8.39891,-0.38523 -1.14523,0 -0.3818,-0.10998 0,-0.27519 0.76344,0 0.76359,0.27519 0,0.10998 z m 1.52703,-0.22019 -1.90883,-0.0548 0,-0.10983 1.96335,0 -0.0547,0.16517 z m -78.31744,-90.31713 0.43632,0.4403 0,0.49532 -0.43632,0.44033 -0.87263,0 0,-0.49537 0.87263,-0.88058 z m 105.04136,70.83373 q 0,1.98138 1.63623,2.86197 l 0.32727,0.22017 2.12707,0.10982 q 1.03619,-0.93565 1.58155,-0.93565 0.6544,-1.9263 0.6544,-2.58679 l 0,-0.22014 q -0.59988,-1.76122 -1.19976,-1.92634 0,-0.71546 -2.18158,-1.26587 -1.74527,-0.0551 -2.72694,1.32091 l -0.21824,2.42169 z m -14.34363,11.99824 q 0.60003,0.055 0.43631,3.30231 l 0.21824,0.055 0.0547,-1.7612 -0.10936,-1.04571 0.21824,-0.4954 8.78071,1.26588 -0.27276,6.0542 -38.7224,-5.11853 0.21823,-6.16426 29.17811,3.90769 z m 2.29078,-12.93389 -0.10935,0.38527 0.21823,0 0.10935,-0.38527 -0.21808,0 z" />
    <path
       inkscape:connector-curvature="0"
       id="path4419-4-1"
       style="font-style:normal;font-variant:normal;font-weight:normal;font-stretch:normal;font-size:medium;line-height:125%;font-family:Kuusinollakahdeksan;-inkscape-font-specification:Kuusinollakahdeksan;letter-spacing:0px;word-spacing:0px;fill:#ffffff;fill-opacity:1;stroke:none;stroke-width:1px;stroke-linecap:butt;stroke-linejoin:miter;stroke-opacity:1"
       d="m 213.307,828.5464 0,0.16517 0,0 0,-0.16517 0,0.16517 0.16372,0 0,65.27492 -0.16372,0 0,0.16517 0,-0.16517 0,0 0,0.16517 q 0,-0.55039 0,-0.55039 l 0,-0.22014 0,-0.38528 0,-0.16517 0,-0.22013 0,-16.29123 0,-0.22015 0,-0.16532 0,-0.22014 q 0,-1.92635 -0.0547,-2.4217 l 0,-6.16422 q 0.0547,0 0.0547,-0.77053 l 0,0 0,-0.60541 0,-0.16517 0,-0.22011 0,-2.64185 0,-2.97202 0,-0.55037 0,-3.19223 0,-1.10075 0,-0.38522 0,-0.22019 0,-0.16517 0,-24.65697 0,-0.16534 0,-0.22014 q 0,-0.27522 0,-0.5504 z m 18.59776,-2.6418 0,0.44031 0.43616,0.38524 -0.43616,0 -0.38195,-0.38524 -0.43616,0.38524 -9.87158,0 -0.81811,0.82555 0,8.31072 0.43631,0.38528 -0.81795,4.18288 -3.27246,0 0.3818,-0.44031 0,-0.38527 -1.63608,0 0,6.21929 0.43632,0.38525 -0.43632,0.4403 0,4.56816 0.81796,0.77055 q 1.19991,0 1.19991,-1.59613 l 0.43632,0 q 0,0.88064 1.25443,1.59613 1.19976,0 1.19976,2.14647 l 0,21.13453 0.43631,0.38526 0,0.44032 -0.43631,0 q 2.34514,7.4301 3.27245,7.4301 1.6906,0 2.50871,2.47673 2.8905,0.33023 2.8905,1.70615 l 9.43526,0 q 5.56293,0 6.98092,-2.47671 l -0.43632,-2.09143 0,-4.95341 q 0,-3.74258 -2.01787,-3.74258 l 0,0.82557 -1.25443,0 -0.43631,-0.38529 -0.3818,0 -0.43632,0.38529 -0.3818,-0.38529 0,0.38529 q -3.2723,-0.82557 -3.2723,-1.65114 l 0.81812,-4.18286 -0.43632,-0.4403 0.43632,0 -0.43632,-0.3853 0.43632,-2.09143 -0.43632,-0.38525 0.43632,-0.44032 -0.43632,-2.03642 0,-3.74257 0.43632,-0.44028 -0.43632,-0.38525 0,-1.21086 0.43632,-0.44032 -0.43632,-0.44025 0,-0.38528 0.43632,-0.44034 0,-0.44025 -0.81812,-0.8256 q 0,-2.20148 2.89066,-3.68753 l 2.45419,0.77055 1.63607,0 1.19991,-3.30229 0,-1.59605 -0.38179,-0.44037 0.38179,-0.4403 0,-3.30228 0.43632,-1.65111 q -0.59988,-1.65115 -1.25443,-1.65115 l 0,0.38527 -0.3818,-0.38527 -2.5087,0 -2.83599,0.82558 0,-0.44031 q 0,-0.99064 -1.63623,-1.26587 l 0.3818,-0.38526 -0.3818,-0.44029 0.3818,-2.03643 0,-3.30228 -0.76359,-3.35729 0.76359,-0.82555 0,-1.65115 -2.01787,-0.38524 -0.43631,0.38524 -2.89051,-0.82555 z" />
    <path
       inkscape:connector-curvature="0"
       id="path4421-4-5"
       style="font-style:normal;font-variant:normal;font-weight:normal;font-stretch:normal;font-size:medium;line-height:125%;font-family:Kuusinollakahdeksan;-inkscape-font-specification:Kuusinollakahdeksan;letter-spacing:0px;word-spacing:0px;fill:#ffffff;fill-opacity:1;stroke:none;stroke-width:1px;stroke-linecap:butt;stroke-linejoin:miter;stroke-opacity:1"
       d="m 11.093304,915.20686 0,-0.30757 3.10874,0 0,0.30757 -0.609563,0 0,0.30756 -2.499177,-0.30756 z m 5.546679,-0.30757 1.828689,0 0,0.30757 -0.609563,0.61511 -0.304781,0 -0.914345,-0.92268 z m 2.742878,2.46042 1.889614,0 -0.365707,0.30757 0,0.30754 0.365707,0.30758 -1.889614,0.98416 -0.304626,-0.30759 0,-0.36902 0.304626,-0.30755 -0.304626,0 0.304626,-0.92269 z m -3.839997,0.92269 0.914344,0 0,0.67657 -0.975269,-0.36902 0.06092,-0.30755 z m -4.69326,0.24604 0.365706,0.0619 0.304782,-0.0619 0.609406,0 2.621028,0.12295 1.950539,0.0619 2.864727,0.12279 5.485754,0.12278 0.365707,0.0619 0.304781,0 0,-0.0619 0.304782,0.0619 0.304781,0 1.340977,0 0,0.0612 0.304781,0 0.975113,0 2.560102,0.12279 2.620871,0.0616 0.304782,0.0616 0.304781,0 0.304782,-0.0616 0,0.0616 0.365706,-0.0616 8.350482,0.3076 0,0.30751 -12.556185,-0.36902 -0.365707,-0.0619 -0.304781,0 -0.304782,0 -0.304781,-0.0615 0,0.0615 -0.365707,-0.0615 -1.584676,0 -0.365863,-0.0617 -1.584676,0 -9.691458,-0.30753 -0.304781,-0.0617 -0.304782,0.0617 -0.975269,-0.0617 -0.365707,-0.0616 -0.304781,0.0616 -0.304782,-0.0616 -0.365707,0 -0.914344,0 -0.365707,-0.0612 -1.584676,0 -7.253362,-0.12279 0,-0.36905 7.558144,0.18456 z m 22.308724,45.82546 0.487557,0 -0.12185,4.30576 -0.731414,0 -0.426631,-0.67661 0,-0.67663 q 0.06093,-1.23022 0.792338,-2.95252 z m -0.243856,9.28813 0.426631,0 -0.365706,12.30213 -0.487557,0 q -1.828689,-2.27591 -1.645758,-7.07371 l 0.243857,-0.3076 -0.243857,0 q 0.183088,-2.27588 2.07239,-4.92082 z m -28.5258924,39.61287 0,-0.3076 37.4859364,1.1687 0,0.3076 -37.4859364,-1.1687 z m 43.5812544,-80.08693 -11.581072,51.54599 0,0.30754 -0.12185,0 0,-0.30754 11.581072,-51.54599 0,-0.30756 0.12185,0 0,0.30756 z m -28.769749,-2.39893 0.609563,0.86118 -0.731413,0.61511 -0.609563,-0.86117 0.731413,-0.61512 z m -2.438095,-2.52191 2.316245,0.30755 q 3.230434,0.30754 3.047659,2.02986 l -4.144778,32.66218 -0.914345,2.58345 0.12185,4.05967 0,0.4306 -0.975269,3.93668 q -0.243857,2.21439 5.607604,3.75217 l 0.609563,-0.43061 3.779072,0.9227 11.398141,1.47623 q 1.097119,0.67663 0.914344,2.46045 l -0.731413,1.23019 0.304625,2.21439 q -1.279895,1.96836 -2.377014,2.02988 l -6.034393,-0.73813 -1.706682,0.30756 -2.681952,-0.79968 -0.548482,-0.0612 -16.82297,-2.39894 q -2.560102,-0.98415 -2.0723892,-11.62553 1.4019012,-2.76795 5.4857542,-34.26144 1.767608,-10.08776 3.291359,-9.90323 l 2.133314,-0.18456 z m 15.603844,58.98875 1.036194,0.18476 -0.12185,1.47626 -2.559946,1.9068 -0.609563,-0.86111 q 2.19424,-1.53781 2.255321,-2.70648 z m -5.851461,2.02986 0.304781,0.43056 -0.06093,0.79965 -0.365707,-0.0617 -0.609406,-0.86115 0.365706,-0.36908 0.365707,0.0612 z m -24.8077455,0.30758 0,0.30752 0.609563,1.04569 0.060925,-0.92269 -0.670488,-0.43052 z m 22.8573625,6.02804 1.036194,0.18474 -0.06092,0.7381 -1.036194,-0.18456 0.06093,-0.73816 z m -1.036195,0.61509 0.304625,0.0619 q 10.910584,3.93669 8.289713,3.50613 l 0.06093,-0.36907 -8.655263,-3.19855 z m -19.9315535,-2.1529 -0.060925,0.36911 0.5484818,1.66077 0.4267878,0.0617 0.060925,-0.61509 q -0.670488,-0.12279 -0.5486379,-1.04568 l -0.2438564,-0.36906 -0.1829314,-0.0612 z m 26.5144275,5.78205 0.304782,0.4306 -0.06093,0.7996 q -0.12185,1.0457 -3.535216,0.9842 l -0.914344,-1.3533 q 0.12185,-1.47623 4.205703,-0.8611 z m -25.1736076,-2.95254 -0.1218502,1.29175 0.8534195,0.43059 0.1218501,-1.23025 -0.8534194,-0.49209 z m 0.9143444,2.09139 1.5848326,2.52195 0.4266316,0.062 0,-0.3075 q 0.060925,-0.5536 -0.9752696,-1.1072 0.060925,-0.9842 -0.3657065,-1.04575 l -0.6704881,-0.12278 z m 100.8158142,-21.95933 0.48771,0.49206 0,0.55363 -0.48771,0.49204 -0.97511,0 0,-0.55356 0.97511,-0.98417 z m -30.049644,22.32841 q 0,2.95247 2.742877,4.24427 l 0.548638,0.3075 3.657065,0.1228 q 1.767608,-1.3533 2.621027,-1.3533 1.158045,-2.82947 1.158045,-3.75214 l 0,-0.36906 q -1.036194,-2.58344 -2.011464,-2.82952 0,-0.98417 -3.71799,-1.78379 -2.925809,-0.0616 -4.571567,1.90684 l -0.426631,3.50612 z m -50.46891,15.93127 q 0.487713,0.1228 0.548638,2.7064 l 0.182931,0.062 -0.06092,-1.4147 -0.12185,-0.8612 0.12185,-0.3691 7.862925,1.3533 0.121851,4.7978 -34.62120977,-5.659 -0.18293138796,-4.8593 26.14872115796,4.2442 z m 74.484314,12.8557 -0.0609,0.4306 0.24385,0 0.0609,-0.4306 -0.24386,0 z" />
    <path
       inkscape:connector-curvature="0"
       id="path4423-6-5"
       style="font-style:normal;font-variant:normal;font-weight:normal;font-stretch:normal;font-size:medium;line-height:125%;font-family:Kuusinollakahdeksan;-inkscape-font-specification:Kuusinollakahdeksan;letter-spacing:0px;word-spacing:0px;fill:#ffffff;fill-opacity:1;stroke:none;stroke-width:1px;stroke-linecap:butt;stroke-linejoin:miter;stroke-opacity:1"
       d="m 44.845316,933.41403 0.365706,2.95247 0,2.33745 -0.792494,12.42513 0.243856,7.07378 -0.548638,4.73629 0.243857,8.24244 -0.609407,5.90502 0.36555,4.73636 -0.609406,4.12119 0.243856,8.30396 -0.12185,5.90498 -0.670488,7.6273 0.365706,6.5202 2.255165,0.6766 14.62873,0.4921 2.377171,-0.4921 2.072389,-81.50165 -1.401901,-1.78381 -15.055362,-0.55364 q -2.011464,-0.0612 -3.35244,2.27593 z" />
    <path
       inkscape:connector-curvature="0"
       id="path4425-3-7"
       style="font-style:normal;font-variant:normal;font-weight:normal;font-stretch:normal;font-size:medium;line-height:125%;font-family:Kuusinollakahdeksan;-inkscape-font-specification:Kuusinollakahdeksan;letter-spacing:0px;word-spacing:0px;fill:#ffffff;fill-opacity:1;stroke:none;stroke-width:1px;stroke-linecap:butt;stroke-linejoin:miter;stroke-opacity:1"
       d="m 73.84283,921.11187 3.413365,0 0,0.79963 -3.23059,0 -0.182775,-0.79963 z m 4.32771,0 3.47429,0 0,0.79963 -3.23059,0 -0.2437,-0.79963 z m 7.131356,0 2.986733,0 0,0.24606 -0.426631,0.55357 -2.316246,0 -0.243856,-0.79963 z m 8.045856,0.24606 0,-0.24606 4.144778,0 0,0.24606 -0.487712,0.55357 -3.169509,0 -0.487557,-0.55357 z m 5.058967,-0.24606 0.670488,0 0,0.24606 -0.426632,0.55357 -0.243856,-0.24604 0,-0.55359 z m 2.742881,0 0.91434,0 -0.24386,0.79963 -0.42663,0 -0.24385,-0.79963 z m 2.98673,0 1.4019,0 0,0.24606 -0.48756,0.55357 -0.67048,0 -0.24386,-0.79963 z m 2.98673,0.24606 0,-0.24606 2.74288,0 0,0.24606 -0.42679,0.55357 -1.82853,0 -0.48756,-0.55357 z m 4.14478,0 0,-0.24606 0.91419,0 -0.2437,0.79963 -0.24386,0 -0.42663,-0.55357 z m 3.65722,0 0,-0.24606 0.73142,0 0,0.79963 -0.24386,0 -0.48756,-0.55357 z m 2.07224,-0.24606 2.07239,0 0,0.79963 -1.82854,0 -0.24385,-0.79963 z m 2.98673,0.24606 0,-0.24606 0.67049,0 0,0.79963 -0.18293,0 -0.48756,-0.55357 z m 2.07239,-0.24606 2.98673,0 0,0.24606 -0.42663,0.55357 -2.31624,0 -0.24386,-0.79963 z m 5.30298,0.24606 0,-0.24606 1.82853,0 0,0.79963 -1.4019,0 -0.42663,-0.55357 z m 2.74288,0 0,-0.24606 0.67048,0 0,0.79963 -0.18293,0 -0.48771,-0.55357 z m 4.38847,0 0,-0.24606 3.41337,0 0,0.24606 -0.42663,0.55357 -2.55995,0 -0.42679,-0.55357 z m 5.05913,-0.24606 0.67049,0 0,0.24606 -0.48756,0.55357 -0.18293,0 0,-0.79963 z m 2.01146,0.24606 0,-0.24606 2.8038,0 0,0.79963 -2.31609,0 -0.48771,-0.55357 z m 4.38864,0 0,-0.24606 2.74287,0 0,0.24606 -0.42663,0.55357 -1.82869,0 -0.48755,-0.55357 z m 3.65706,-0.24606 0.73157,0 0,0.24606 -0.48771,0.55357 -0.24386,0 0,-0.79963 z m 2.8038,0.24606 0,-0.24606 0.91435,0 -0.24386,0.79963 -0.2437,0 -0.42679,-0.55357 z m -77.897522,22.75894 0.365707,0.0616 q 0.609563,0.0617 1.584832,8.73452 l 4.388479,27.55682 3.108583,19.80644 1.828689,0.8611 4.388479,0.4307 0.365863,-0.3076 0.304625,0.369 0.85342,0.062 q 2.681952,0.246 3.718146,-4.92087 l 18.224869,-50.31578 3.77907,-9.90323 -0.85342,-1.41472 -6.27809,-0.55361 q -2.5601,-0.24604 -2.92565,3.69064 l -8.411563,25.03485 q -6.521949,18.33021 -7.984776,24.0507 l -1.097119,0.61512 -0.304782,-0.0616 -2.803802,-19.4374 -3.23059,-19.49891 q -1.706683,-17.09998 -3.413365,-17.22301 l -7.802,-0.7381 q 0.06092,0 2.194395,13.10177 z m 123.490242,65.50893 0.24386,0 q 0.79234,0 0.73141,1.3532 2.07239,1.5993 2.01147,3.1986 l -6.76581,-0.1228 0.12185,-2.1529 q 0.0609,-1.4148 3.65722,-2.2759 z m -73.26519,-0.6151 0.54864,0 q 2.07239,0.062 1.95038,1.5992 l -0.2437,0.123 0.2437,0.6766 -0.30478,1.8453 -4.87619,-0.062 0,-1.6609 0.36586,-0.6765 -0.24401,-0.6766 q 0.73157,-1.1688 2.5601,-1.1688 z m 17.85917,0.2461 q 1.28005,0.4305 1.21897,1.3531 l -0.0609,2.8296 -4.87619,0 0,-1.0457 q 0.12185,-3.1986 1.88946,-3.137 l 1.82853,0 z m 20.96774,0.246 1.28006,0 q 1.03619,0.3075 0.97526,1.5377 l -0.0609,2.7065 -4.87619,-0.1228 0.0609,-2.3374 q 0.0609,-1.7838 2.62087,-1.7838 z m 10.36195,0.1228 1.03619,0 q 1.64576,0 2.49918,1.9068 l -1.09727,2.3374 -4.38848,-0.062 -0.42679,-1.5377 q 0.0609,-2.645 2.37717,-2.645 z m 11.82493,2.8909 1.58467,0 0.42664,0.3076 -0.2437,1.1687 -4.38864,-0.062 0,-0.1846 q 0.0609,-1.2917 2.62103,-1.2302 z" />
    <path
       inkscape:connector-curvature="0"
       id="path4427-5-42"
       style="font-style:normal;font-variant:normal;font-weight:normal;font-stretch:normal;font-size:medium;line-height:125%;font-family:Kuusinollakahdeksan;-inkscape-font-specification:Kuusinollakahdeksan;letter-spacing:0px;word-spacing:0px;fill:#ffffff;fill-opacity:1;stroke:none;stroke-width:1px;stroke-linecap:butt;stroke-linejoin:miter;stroke-opacity:1"
       d="m 121.24815,925.60217 -0.12185,0.49206 -9.14298,0 -0.0609,-0.12295 q -0.30479,0.18456 -0.30479,0.36905 l 0,33.70787 q 0,0.67664 -0.3657,0.67664 l -0.24386,0 0,-35.67621 10.2401,0 0,0.55359 z m 20.60204,3.81363 2.68195,0.30758 -0.0609,0.49208 -2.68196,-0.24604 0.0609,-0.55362 z m 3.23043,0.30758 2.13332,0.24604 -0.0609,0.55359 -2.13347,-0.24603 0.0609,-0.5536 z m 2.62103,0.30754 3.71815,0.43057 0,0.4921 -3.77908,-0.36905 0.0609,-0.55362 z m 4.26663,0.49209 2.13347,0.18457 -0.0609,0.55359 -2.13331,-0.24604 0.0609,-0.49209 z m 3.71814,0.36905 3.77908,0.4306 -0.0609,0.55362 -3.77907,-0.4306 0.0609,-0.55362 z m -24.62497,-1.53776 38.40029,4.12125 0.48771,0.61509 0.48756,0.0616 0.60956,-0.4921 0.48756,0.61511 0.60956,-0.49206 -0.12185,1.04566 q 2.13331,0.24605 1.88961,2.39889 l 1.0362,0.12294 -0.0609,0.55357 -1.03619,-0.12278 -0.0609,0.55356 1.09712,0.12278 -0.60956,0.49212 0.48771,0.55358 -0.73157,6.52016 -1.03604,-0.12294 -0.0609,0.55362 1.03619,0.12279 -0.0609,0.49207 -1.0362,-0.12279 0.48756,0.6151 q -0.73141,1.7223 -2.37717,1.96836 l -0.48756,-0.61514 -0.12185,1.04571 -0.48755,-0.0616 -0.48772,-0.55359 -2.74287,0.24604 -1.58468,-0.18457 -0.48771,-0.61511 -0.60957,0.49206 -10.11809,-1.10717 -0.54863,0.49207 -4.69342,-1.59926 -2.25516,0.86115 -0.48756,-0.61512 -1.03635,-0.0616 -0.0609,0.4921 1.03635,0.12279 -0.0609,0.55357 -1.0362,-0.12279 -0.48771,4.30573 0.54864,0.0616 0.24386,-2.15287 0.54848,0.0616 -0.54848,4.85937 -0.54864,-0.0616 0.24385,-2.15285 -0.54863,-0.0617 -0.18293,2.1529 2.07238,0.79962 -0.12185,1.1072 -0.54863,-0.0616 -0.48756,-0.6151 -0.54864,-0.0616 0,0.55359 0.42679,0.55359 1.09712,0.12279 0.60956,-0.49212 0.42663,0.61513 2.68196,0.30756 0.12185,-1.1072 0.54863,0.0617 -0.12185,1.10719 2.13332,0.24605 0.54864,-0.49209 0.54848,0.0616 -0.12185,1.04569 3.83999,-0.67661 2.07239,0.79967 2.74288,-0.24606 -0.12185,1.04567 0.54864,0.0619 0.12185,-1.04568 1.03619,0.0619 4.69342,1.59927 -0.60956,0.4921 -0.0609,0.55359 q 1.64576,0.18457 1.46283,1.78381 l 0.48771,0.61511 0.48756,0.0617 -0.60957,5.96655 -0.6094,0.43054 0.48755,0.61512 -0.30478,3.2601 -0.54848,-0.0616 0.18309,-1.59928 -0.54864,-0.0617 q -0.30478,2.70645 -1.34098,2.58346 l -1.64575,0.36905 -0.48756,-0.61511 -0.12185,1.10721 -0.48771,-0.61509 -0.60941,0.49204 -1.03619,-0.12279 -0.48772,-0.61508 -0.54848,-0.0619 -0.54864,0.49211 -0.48771,-0.61511 -0.60941,0.49205 0.0609,-0.55359 -0.60956,0.49207 -1.0362,-0.12278 -0.48756,-0.55361 -0.54863,-0.0619 -0.54864,0.4921 0.0609,-0.55361 -0.60956,0.49212 -0.54848,-0.0616 -4.69342,-1.10716 -0.6094,0.49207 0.0609,-0.49207 -0.60941,0.43057 -0.54863,-0.0619 -0.42664,-0.55359 -0.54863,-0.0617 -0.0609,0.55357 -0.48755,-0.61507 -0.54864,-0.0616 q -3.16951,-0.36912 -3.35244,1.29167 l -0.97527,-1.23019 0.60956,-0.4921 -0.54848,-0.0616 -0.54864,0.49209 -0.48756,4.36725 1.09712,0.0612 -0.0609,0.55364 -1.09712,-0.12279 -0.36571,3.81368 -1.09712,-0.12295 -0.0609,0.55359 2.13331,0.24603 -0.0609,0.49214 -1.58484,-0.12279 q 0.30479,3.81369 1.21913,3.93672 l 1.15805,-0.98415 -0.0609,0.55357 -0.60941,0.49209 -0.0609,0.55362 0.54848,0.0616 0.60956,-0.49206 0.54864,0.0616 0.42663,0.55358 0.60957,-0.43059 -0.12185,1.0457 0.54848,0.0612 0.12185,-1.10716 0.54864,0.0612 -0.12185,1.10718 2.74287,-0.79962 -0.0609,0.55359 0.60956,-0.49209 4.69326,1.59927 0.0609,-0.55358 0.48755,0.61508 2.68195,-0.24601 2.13332,0.24601 2.62103,0.79968 0.60956,-0.49213 -0.0609,0.55364 0.54864,-0.49211 0.54848,0.0616 0.48772,0.61508 0.54848,0.0612 0.0609,-0.55361 0.42679,0.61513 1.09712,0.0616 0.60956,-0.43057 0.48756,0.0616 -0.0609,1.04568 0.54849,-0.49206 0.54863,0.0617 -0.3657,3.26011 1.09712,0.12279 -0.60957,0.49207 0.48756,0.55359 -0.79234,7.56584 -0.6094,0.4921 -0.0609,0.5536 0.48756,0.6151 q -1.09712,-0.1228 -1.21897,1.4763 l -1.70668,0.369 -0.42679,-0.5536 -0.12185,1.0457 -2.62103,-0.7997 -0.0609,0.5536 -0.48772,-0.615 -3.16951,-0.3691 -0.60956,0.492 -0.48756,-0.6151 -1.03619,-0.1228 -0.60956,0.4921 -0.48756,-0.5536 -1.58483,-0.1845 -0.60957,0.4921 -0.48755,-0.062 0.12185,-1.1072 -0.54864,-0.062 -0.12185,1.1072 -0.54848,-0.062 0.12185,-1.1072 -3.84,0.6767 -2.62103,-0.7997 -4.26662,-0.4921 -0.54864,0.4921 -0.54848,-0.061 0.0609,-0.5537 -0.60972,0.4921 -0.54848,-0.062 -0.42663,-0.5536 -0.54864,-0.062 -0.0609,0.5535 -0.48772,-0.615 -5.85146,-0.6151 -0.6094,0.4305 -1.52376,-0.6766 -4.87634,0 -0.42664,-0.6151 -0.60956,0.4921 -0.48756,-0.5536 -0.54863,0.4306 -1.76761,-3.44467 0.24386,-2.70646 0.60956,-0.49209 -0.48771,-0.61507 0.0609,-0.49211 0.79234,-2.64494 -0.42663,-0.61512 1.15804,-0.98416 -0.54848,-0.0616 -0.54864,0.4921 1.88962,-18.39173 0.6094,-0.49208 0.0609,-0.49209 -0.54848,-0.0612 0.6094,-0.49209 0.0609,-0.5536 -0.36571,-1.66079 0.48756,0.0619 -0.42663,-0.61514 2.49917,-23.80466 0.60941,-0.49207 -0.48756,-0.55357 0.60957,-5.96657 1.09712,0.12295 0.0609,-0.55358 -1.09712,-0.12278 0.30478,-2.70645 1.0362,0.12279 -0.91435,-1.16875 q 2.1944,-3.6291 3.04766,-3.50608 l 1.52375,0.67661 -0.48755,-0.5536 0.0609,-0.55361 z m 5.85162,1.16871 -0.0609,0.55361 2.13331,0.18455 0.0609,-0.49213 -2.13347,-0.24603 z m 4.75419,0.49209 -0.0609,0.55359 2.13332,0.24609 0.0609,-0.55362 -2.13331,-0.24606 z m 10.66672,1.16868 -0.0609,0.55362 2.13347,0.18478 0.0609,-0.49208 -2.13331,-0.24605 z m 13.34868,1.41476 -0.0609,0.55362 3.71815,0.43058 0.0609,-0.55363 -3.71815,-0.43057 z m 4.51049,33.89242 0.48771,0 -0.18309,2.21439 -0.54863,-0.0617 0.24385,-2.15287 z m -48.88408,8.91907 0.48771,0.0619 -0.36586,3.75211 -0.54848,-0.0616 0.42663,-3.75214 z" />
    <path
       inkscape:connector-curvature="0"
       id="path4429-9-2"
       style="font-style:normal;font-variant:normal;font-weight:normal;font-stretch:normal;font-size:medium;line-height:125%;font-family:Kuusinollakahdeksan;-inkscape-font-specification:Kuusinollakahdeksan;letter-spacing:0px;word-spacing:0px;fill:#ffffff;fill-opacity:1;stroke:none;stroke-width:1px;stroke-linecap:butt;stroke-linejoin:miter;stroke-opacity:1"
       d="m 215.83086,922.71115 1.4019,0 q 5.60776,0 16.39634,2.02985 11.58107,3.4446 13.4096,5.16692 l 0.48756,0.49207 0,1.04569 -2.8038,8.73453 q -1.34098,0 -1.95039,5.59745 l -3.41336,3.62915 -0.42679,0 q -2.74288,-2.58346 -8.16755,-2.58346 -2.49918,-1.53775 -6.76581,-1.53775 l -7.67999,0 q -9.63069,2.33739 -9.63069,6.64316 l -0.97511,1.04565 0,2.58347 q 0,5.10538 8.65526,7.68884 13.71439,3.13703 22.61351,8.18092 9.14282,6.15104 11.58091,15.99279 l 0.91435,4.61326 0,5.5975 q -0.42663,8.98051 -6.27809,18.45321 -11.15445,11.2565 -17.79824,11.2565 0,2.0913 -15.8477,2.0913 -13.16591,0 -22.12595,-3.0755 l -7.19244,-2.5834 0,-2.5835 q 1.95054,-2.0913 1.95054,-6.6432 1.21912,0 2.8038,-8.1809 l 2.4381,-2.5834 q 14.68965,3.5676 20.23633,3.5676 14.93351,0 14.93351,-7.68884 l 0,-3.07553 q 0,-8.0579 -18.28579,-10.70289 -3.23059,-1.90677 -8.22863,-3.13703 -11.58108,-6.02805 -14.38488,-14.33201 l -1.95054,-5.72049 0,-13.77842 q 0.73142,-5.78198 7.68,-14.455 l 5.3639,-4.55177 8.10678,-4.05972 q 11.15429,-3.13705 14.93336,-3.13705 z m 40.41174,30.07878 4.02278,0.73808 -0.85327,45.82552 -0.12185,0 q -0.54864,-0.12279 -0.79249,-7.81189 l -1.76761,-21.71328 -1.03619,-13.10178 -0.2437,-1.2302 0,-1.5993 q 0.18277,-1.23019 0.79233,-1.10715 z m 2.74288,70.67577 -0.30478,13.7169 -4.2057,-0.7997 0.18308,-9.6572 q 0,-2.3988 0.79234,-2.2758 l 1.0362,0.6151 2.31624,-1.5993 0.18309,0 z" />
    <ellipse
       style="opacity:1;fill:#ffffff;fill-opacity:0.87349399;stroke:none;stroke-width:1.93599999;stroke-miterlimit:4;stroke-dasharray:none;stroke-opacity:0.68047336"
       id="path6971"
       cx="123.81491"
       cy="1050.5868"
       rx="110.06836"
       ry="1.7752962" />
  </g>
</svg>
